<svg width="140" height="140" viewBox="0 0 140 140" fill="none" xmlns="http://www.w3.org/2000/svg">
<g filter="url(#filter0_f_3253_15903)">
<path d="M73.2432 40.8108C73.2432 54.2448 62.3529 65.1351 48.9189 65.1351C35.485 65.1351 24.5946 54.2448 24.5946 40.8108C24.5946 27.3769 35.485 16.4865 48.9189 16.4865C62.3529 16.4865 73.2432 27.3769 73.2432 40.8108Z" fill="#96D6FF"/>
<path d="M58.6486 65.1351C58.6486 78.5691 47.7583 89.4595 34.3243 89.4595C20.8904 89.4595 10 78.5691 10 65.1351C10 51.7012 20.8904 40.8108 34.3243 40.8108C47.7583 40.8108 58.6486 51.7012 58.6486 65.1351Z" fill="#B9F4FD"/>
<path d="M63.5135 86.2162C63.5135 99.6502 52.6231 110.541 39.1892 110.541C25.7552 110.541 14.8649 99.6502 14.8649 86.2162C14.8649 72.7823 25.7552 61.8919 39.1892 61.8919C52.6231 61.8919 63.5135 72.7823 63.5135 86.2162Z" fill="#ADDDD0"/>
<path d="M79.7297 104.054C79.7297 117.488 68.8394 128.378 55.4054 128.378C41.9715 128.378 31.0811 117.488 31.0811 104.054C31.0811 90.6201 41.9715 79.7297 55.4054 79.7297C68.8394 79.7297 79.7297 90.6201 79.7297 104.054Z" fill="#CEBCFA"/>
<path d="M105.676 105.676C105.676 119.11 94.7853 130 81.3514 130C67.9174 130 57.027 119.11 57.027 105.676C57.027 92.2417 67.9174 81.3514 81.3514 81.3514C94.7853 81.3514 105.676 92.2417 105.676 105.676Z" fill="#FEBBCC"/>
<path d="M125.135 89.4595C125.135 102.893 114.245 113.784 100.811 113.784C87.3769 113.784 76.4865 102.893 76.4865 89.4595C76.4865 76.0255 87.3769 65.1351 100.811 65.1351C114.245 65.1351 125.135 76.0255 125.135 89.4595Z" fill="#FE9993"/>
<path d="M130 63.5135C130 76.9475 119.11 87.8378 105.676 87.8378C92.2417 87.8378 81.3514 76.9475 81.3514 63.5135C81.3514 50.0796 92.2417 39.1892 105.676 39.1892C119.11 39.1892 130 50.0796 130 63.5135Z" fill="#E9B384"/>
<path d="M117.027 40.8108C117.027 54.2448 106.137 65.1351 92.7027 65.1351C79.2687 65.1351 68.3784 54.2448 68.3784 40.8108C68.3784 27.3769 79.2687 16.4865 92.7027 16.4865C106.137 16.4865 117.027 27.3769 117.027 40.8108Z" fill="#E2CEC7"/>
<path d="M92.7027 34.3243C92.7027 47.7583 81.8123 58.6486 68.3784 58.6486C54.9444 58.6486 44.0541 47.7583 44.0541 34.3243C44.0541 20.8904 54.9444 10 68.3784 10C81.8123 10 92.7027 20.8904 92.7027 34.3243Z" fill="#F1DD8E"/>
</g>
<g filter="url(#filter1_d_3253_15903)">
<path fill-rule="evenodd" clip-rule="evenodd" d="M70 21.3513C43.1321 21.3513 21.3513 43.1321 21.3513 70C21.3513 96.8679 43.1321 118.649 70 118.649C96.8679 118.649 118.649 96.8679 118.649 70C118.649 43.1321 96.8679 21.3513 70 21.3513ZM88.0526 88.5611C88.323 89.1407 88.7674 89.4305 89.3856 89.4305H90.4868C90.9118 89.4692 91.4141 89.4692 91.9937 89.4305C92.5347 89.4305 92.8824 89.2566 93.037 88.9089C93.0756 88.8703 93.0949 88.7737 93.0949 88.6191C93.1336 88.2714 93.037 87.7497 92.8051 87.0542L91.7619 83.8665L90.9505 81.3743L88.9799 75.6365L88.806 74.9989C88.7674 74.883 88.7481 74.7091 88.7481 74.4773C88.7481 73.975 88.9219 73.5693 89.2697 73.2602C89.3856 73.1829 89.4822 73.0863 89.5595 72.9704C90.1391 72.5454 90.68 72.0238 91.1823 71.4055C92.2255 70.1304 92.8051 68.6622 92.921 67.0007C92.9983 66.2666 93.037 65.1654 93.037 63.6971V61.7845C93.037 60.8958 93.0176 60.2389 92.979 59.8139C92.9017 58.732 92.8051 57.9206 92.6892 57.3796C92.2642 55.4091 91.3175 53.8249 89.8493 52.6271C88.2264 51.3134 86.2945 50.6179 84.0534 50.5406H75.7654C75.5336 50.5406 75.3404 50.5599 75.1858 50.5985C74.6449 50.7145 74.3551 51.0429 74.3165 51.5838C74.2778 51.7384 74.2585 51.9702 74.2585 52.2793V87.2281C74.2585 87.6531 74.2778 87.9622 74.3165 88.1554C74.3551 88.4646 74.4324 88.6964 74.5483 88.8509C74.7029 88.9669 74.9347 89.0635 75.2438 89.1407C75.3211 89.1794 75.4563 89.1987 75.6495 89.1987C76.1132 89.2373 76.8087 89.2566 77.736 89.2566C77.9292 89.2566 78.1417 89.218 78.3735 89.1407C78.8758 89.0248 79.1463 88.7737 79.185 88.3873C79.2622 87.8463 79.3009 87.4406 79.3009 87.1702V76.7377C79.3009 76.1581 79.4168 75.6751 79.6486 75.2887C79.8805 75.0955 80.1896 74.941 80.576 74.8251C80.6919 74.7864 80.8657 74.7671 81.0976 74.7671C81.5226 74.7671 81.9863 74.8637 82.4886 75.0569C83.3386 75.4433 83.8796 76.0422 84.1114 76.8536C84.4978 78.09 85.116 79.9447 85.9661 82.4176C86.8934 85.2382 87.4923 87.0542 87.7628 87.8657C87.8014 88.0202 87.898 88.252 88.0526 88.5611ZM77.0985 87.8077C77.1757 87.885 77.2337 87.9236 77.2723 87.9236C77.3496 87.7691 77.3883 87.6531 77.3883 87.5759L77.0405 87.1122C77.1178 87.0349 77.1564 86.977 77.1564 86.9383C77.1564 86.6678 77.1757 86.4747 77.2144 86.3587L77.3883 86.1849L77.678 86.1269V86.3587H77.9678C77.9678 86.5906 78.0644 86.7065 78.2576 86.7065L78.0837 87.1702C78.0451 87.2474 78.0258 87.3827 78.0258 87.5759H77.794C77.7553 87.6145 77.736 87.6918 77.736 87.8077L78.0258 87.9816C78.0644 87.9429 78.1031 87.9236 78.1417 87.9236C78.219 87.9236 78.2769 87.9043 78.3156 87.8657V88.3873C78.2383 88.4259 78.1803 88.4259 78.1417 88.3873C78.1031 88.31 78.0451 88.252 77.9678 88.2134C77.736 88.3293 77.6008 88.4066 77.5621 88.4452H77.3303C77.2917 88.4066 77.2337 88.4066 77.1564 88.4452L76.8666 88.5032C76.7893 88.4646 76.77 88.4066 76.8087 88.3293C76.8473 88.2134 76.8473 88.1361 76.8087 88.0975L76.7507 87.7497C76.5962 87.827 76.5189 87.9429 76.5189 88.0975C76.5575 88.2134 76.5768 88.2907 76.5768 88.3293V88.4452C76.4996 88.252 76.287 88.0588 75.9393 87.8657L75.6495 87.9816C75.5722 87.9429 75.5722 87.8657 75.6495 87.7497L75.4177 87.344C75.7225 87.2678 75.9145 87.0977 75.9939 86.8337C75.9961 86.8327 75.9973 86.8289 75.9973 86.8224L75.9939 86.8337C75.9831 86.8387 75.9455 86.7769 75.8813 86.6485L76.1132 86.1269C75.9586 85.8951 75.8813 85.7212 75.8813 85.6053C75.8813 85.4894 75.9007 85.3928 75.9393 85.3155L76.1132 85.3735V85.7792C76.2291 85.8178 76.3257 85.7792 76.403 85.6632C76.5189 85.47 76.5382 85.2382 76.4609 84.9677C76.3836 84.8132 76.403 84.7166 76.5189 84.678L76.6927 85.0257C76.77 84.9871 76.9053 84.9677 77.0985 84.9677L77.3883 85.3155L77.8519 85.0257L77.5042 84.7359C77.5428 84.7359 77.6394 84.6973 77.794 84.62L78.1997 84.7939C78.161 84.9098 78.1417 85.0837 78.1417 85.3155L77.9678 85.2575C77.9292 85.3348 77.9485 85.4314 78.0258 85.5473C78.1417 85.6246 78.1997 85.6826 78.1997 85.7212C78.1224 85.7985 78.0258 85.7985 77.9099 85.7212C77.794 85.6439 77.6974 85.6053 77.6201 85.6053C77.5814 85.6439 77.5621 85.7212 77.5621 85.8371C77.5235 85.8758 77.4848 85.8758 77.4462 85.8371L77.3883 85.7212L77.2144 85.6053C77.1757 85.7212 77.1564 85.8564 77.1564 86.011C77.1951 86.1656 77.2144 86.2815 77.2144 86.3587L76.7507 86.3008L76.6927 86.3587V86.7065H76.5189L76.1711 86.3008C76.1711 86.6872 76.1518 86.9383 76.1132 87.0542C76.345 87.2088 76.4996 87.2861 76.5768 87.2861C76.7314 87.2861 76.8859 87.344 77.0405 87.4599L77.0985 87.8077ZM77.5042 84.7359C77.3882 84.62 77.3303 84.5427 77.3303 84.5041C77.3303 84.4654 77.3882 84.3882 77.5042 84.2722C77.5428 84.3495 77.5428 84.4461 77.5042 84.562V84.7359ZM78.3735 86.2428L78.5474 86.4167L78.2576 86.5906H78.1997V86.5326L78.3735 86.2428ZM78.0258 83.7506C78.0644 83.7893 78.1031 83.8859 78.1417 84.0404C77.9485 83.8472 77.8326 83.712 77.794 83.6347C77.9099 83.6347 77.9872 83.6733 78.0258 83.7506ZM77.3883 82.2437C77.3883 82.4369 77.3689 82.6108 77.3303 82.7653C77.253 82.7267 77.1564 82.7074 77.0405 82.7074L77.2723 82.1857L77.3883 82.2437ZM78.0837 83.229H78.3156L78.6633 83.5767C78.4701 83.5381 78.2769 83.4222 78.0837 83.229ZM78.1997 82.3596C78.0837 82.3983 77.9099 82.4949 77.678 82.6494C77.6394 82.4949 77.6394 82.3789 77.678 82.3017C77.7553 82.1857 77.794 82.1085 77.794 82.0698H77.9678C78.0065 81.9153 78.1997 81.8573 78.5474 81.896L78.3156 82.0119C78.2769 82.0505 78.1997 82.0698 78.0837 82.0698H78.0258C77.9872 82.1085 77.9678 82.1664 77.9678 82.2437L78.1997 82.3596ZM86.2559 80.2731C86.3718 80.0799 86.5263 80.0606 86.7195 80.2152L86.4297 80.447L86.2559 80.2731ZM89.5015 70.5362C89.347 70.343 89.2117 70.343 89.0958 70.5362H89.5015ZM88.9799 69.319C88.9026 69.5122 88.7867 69.5895 88.6321 69.5509C88.6321 69.5122 88.6708 69.377 88.7481 69.1452L88.9799 69.319ZM88.9799 68.7395C89.0958 68.8167 89.231 68.8167 89.3856 68.7395C89.1924 68.6235 89.0572 68.6235 88.9799 68.7395ZM82.1988 69.8407C81.851 69.8407 81.5612 69.86 81.3294 69.8986C80.8271 69.9759 80.3441 69.9179 79.8805 69.7247C79.4941 69.4929 79.3009 69.1065 79.3009 68.5656V56.858C79.3009 56.6648 79.3202 56.5103 79.3588 56.3944C79.4747 55.8921 79.7839 55.6409 80.2862 55.6409C80.7112 55.6409 81.0396 55.6216 81.2715 55.5829L82.1988 55.525H82.3727C82.4886 55.4863 82.5658 55.4863 82.6045 55.525C82.7204 55.5636 82.9136 55.5829 83.1841 55.5829H83.7636C84.4591 55.6602 84.9421 55.7568 85.2126 55.8727C86.6422 56.2591 87.5309 57.1865 87.8787 58.6547L87.9946 59.698C88.0332 60.3935 88.0526 61.4174 88.0526 62.7698L87.8787 65.7256L87.7628 67.0587C87.4537 68.2951 86.7388 69.1065 85.6183 69.4929C85.116 69.6861 84.633 69.7827 84.1694 69.7827H83.1261C82.8943 69.8213 82.5852 69.8407 82.1988 69.8407ZM78.7792 52.801C78.702 52.8396 78.6054 52.8782 78.4895 52.9169V52.5691H78.8372L79.0111 52.3373L79.069 52.685C78.9918 52.7237 78.8952 52.7623 78.7792 52.801ZM81.7931 53.6124C81.8317 53.651 81.8703 53.7283 81.909 53.8442L81.5612 53.4385H81.7351C81.7738 53.4771 81.7931 53.5351 81.7931 53.6124ZM80.8078 52.4532C80.9623 52.4918 81.0203 52.6271 80.9817 52.8589C80.8271 52.7044 80.7112 52.6078 80.6339 52.5691C80.7112 52.4918 80.7691 52.4532 80.8078 52.4532ZM90.6607 60.9731C90.738 60.9731 90.8732 61.0117 91.0664 61.089V61.3208C91.0277 61.2822 90.9698 61.2628 90.8925 61.2628C90.8539 61.2628 90.8152 61.2435 90.7766 61.2049L90.3129 61.1469C90.4675 61.031 90.5834 60.9731 90.6607 60.9731ZM90.197 60.4514C90.0425 60.5287 89.9265 60.5673 89.8493 60.5673C89.8493 60.5287 89.8299 60.4707 89.7913 60.3935V60.0457L90.197 60.4514ZM83.4739 52.3952C83.6671 52.5112 83.6477 52.685 83.4159 52.9169C83.3773 52.8396 83.3579 52.7237 83.3579 52.5691L83.4739 52.3952ZM91.2982 60.0457L91.2403 60.2196L90.7766 60.2776L90.5448 59.9298C90.3902 59.8525 90.2743 59.7753 90.197 59.698L90.6027 59.5241C90.6027 59.4855 90.6414 59.4275 90.7186 59.3502L90.9505 59.5241L90.7766 59.9878C90.8925 60.0264 91.0664 60.0457 91.2982 60.0457ZM91.53 60.2776L92.0517 60.4514L91.53 60.5673V60.2776ZM90.3129 58.1331C90.197 58.1717 90.0618 58.1911 89.9072 58.1911C89.9072 57.9979 89.9845 57.9013 90.1391 57.9013L90.3129 58.1331ZM90.0231 57.2637L90.197 57.3796L89.5015 57.8433C89.5015 57.6888 89.5208 57.5922 89.5595 57.5535C89.6367 57.4762 89.7913 57.3796 90.0231 57.2637ZM87.7628 54.8295C87.6855 54.5204 87.6469 54.3465 87.6469 54.3079C87.6469 54.4624 87.6855 54.6363 87.7628 54.8295ZM89.4436 55.6989C89.5981 55.7761 89.6174 55.8727 89.5015 55.9887C89.3856 55.95 89.347 55.8921 89.3856 55.8148L89.4436 55.6989ZM88.806 54.8295C88.806 54.8681 88.8447 54.9261 88.9219 55.0034L88.5742 55.1193C88.5742 55.0034 88.6515 54.9068 88.806 54.8295ZM46.4291 89.3146C46.7382 89.3919 46.9893 89.4305 47.1825 89.4305H49.0372C49.269 89.4305 49.5781 89.3919 49.9645 89.3146C50.3123 89.276 50.5441 89.0635 50.66 88.6771C50.7373 88.2907 50.7759 88.0009 50.7759 87.8077V76.9116C50.7759 76.7184 50.8146 76.3899 50.8919 75.9263C50.8919 75.6558 51.0464 75.4433 51.3555 75.2887C51.5874 75.2114 51.7612 75.1728 51.8771 75.1728C52.7272 75.0955 53.3647 75.0569 53.7898 75.0569C54.2921 75.0955 54.7171 75.1149 55.0648 75.1149C55.4126 75.0762 55.7024 75.0569 55.9342 75.0569C57.0547 75.0569 58.1946 74.7864 59.3537 74.2455C60.2424 73.8591 61.1505 73.2022 62.0778 72.2749C63.0438 71.2703 63.7199 70.1111 64.1063 68.7974C64.4154 67.3291 64.5893 66.2472 64.6279 65.5518L64.6859 64.0448V63.0596C64.7245 62.6732 64.7245 62.2288 64.6859 61.7265L64.3382 58.7706C64.2222 57.882 64.029 57.0705 63.7586 56.3364C63.1017 54.7522 62.2323 53.5351 61.1505 52.685C59.5276 51.41 57.6343 50.7724 55.4706 50.7724C53.6932 50.7338 51.0078 50.7145 47.4144 50.7145C47.2598 50.7145 47.028 50.7531 46.7189 50.8304C46.1779 50.9076 45.8688 51.2361 45.7915 51.8157L45.6756 53.3226V60.2196C45.7143 61.572 45.7336 63.6198 45.7336 66.3632V72.5647C45.7722 73.9557 45.7915 76.0615 45.7915 78.8821C45.7915 81.6641 45.7529 83.7699 45.6756 85.1996V86.7645L45.7915 88.2714C45.7915 88.3873 45.8302 88.5611 45.9074 88.793C45.9847 89.0635 46.1586 89.2373 46.4291 89.3146ZM47.4723 85.3155C47.5882 85.4314 47.5882 85.586 47.4723 85.7792C47.4723 85.7405 47.4337 85.6826 47.3564 85.6053C47.3178 85.4894 47.3564 85.3928 47.4723 85.3155ZM46.8927 84.2143C46.9314 84.1756 47.0087 84.1563 47.1246 84.1563L46.8927 84.4461C46.8541 84.2916 46.8541 84.2143 46.8927 84.2143ZM47.3564 83.5767C47.5882 83.6927 47.7042 83.8086 47.7042 83.9245V84.562C47.5882 84.562 47.5303 84.5234 47.5303 84.4461L47.4144 83.8665L47.0666 83.6927C46.9507 83.6927 46.8155 83.7313 46.6609 83.8086C46.6223 83.6154 46.6609 83.4801 46.7768 83.4029L47.0087 83.171C47.0473 83.3256 47.1632 83.4608 47.3564 83.5767ZM49.327 84.7359L49.2111 85.0837L49.0372 84.9677C49.0372 84.7745 49.0565 84.6393 49.0951 84.562L49.1531 84.5041L49.327 84.7359ZM47.4723 82.5915L47.7621 82.9972L47.7042 83.171C47.5882 83.0938 47.4144 83.0165 47.1825 82.9392C47.1053 82.7847 47.0666 82.6301 47.0666 82.4755L47.4723 82.5915ZM47.936 83.171L48.2258 83.3449L48.0519 83.6927L47.8201 83.5188L47.936 83.171ZM47.5882 81.1425C47.6655 81.2584 47.6269 81.3164 47.4723 81.3164L47.2405 81.2005V81.0845C47.3178 81.1232 47.4337 81.1425 47.5882 81.1425ZM48.1678 81.3743H48.3417L48.5735 81.838L48.1678 81.78V81.3743ZM48.0519 81.1425H47.878L47.936 80.8527L48.1678 80.9686C48.1678 81.0459 48.1292 81.1039 48.0519 81.1425ZM49.5588 82.2437C49.6747 82.2437 49.752 82.263 49.7906 82.3017L49.269 82.4755L48.7474 82.0698C48.7474 81.9539 48.786 81.8766 48.8633 81.838L49.0372 81.6641C49.1145 81.6255 49.1531 81.5868 49.1531 81.5482C49.1917 81.4709 49.2304 81.413 49.269 81.3743C49.4236 81.413 49.5395 81.5675 49.6168 81.838L49.4429 82.0119C49.4429 82.1278 49.4815 82.2051 49.5588 82.2437ZM47.4723 80.6209C47.395 80.7754 47.3178 80.8914 47.2405 80.9686L46.9507 80.7948L47.5303 80.389C47.5303 80.505 47.511 80.5822 47.4723 80.6209ZM47.7621 80.2731L47.5303 80.389L47.4144 80.0993C47.3052 79.9173 47.2817 79.7525 47.3439 79.6049L47.5882 79.7515L47.7621 80.2731ZM47.7621 80.2731L47.878 80.505L48.3997 80.3311C48.5928 80.5243 48.8054 80.6209 49.0372 80.6209L48.9792 80.3311L48.4576 80.0413C48.2258 80.0413 48.0519 80.0606 47.936 80.0993L47.7621 80.2731ZM47.2984 79.5776V79.5197C47.2984 79.4424 47.3178 79.3651 47.3564 79.2878C47.4337 79.2106 47.4723 79.1333 47.4723 79.056L47.4144 78.9401L47.1825 78.9981C47.1825 78.9594 47.1439 78.8628 47.0666 78.7083H47.5882L47.3564 78.3605C47.0473 78.5537 46.8155 78.7662 46.6609 78.9981C46.7382 78.9981 46.8541 79.0367 47.0087 79.114C46.9314 79.3458 46.8541 79.6163 46.7768 79.9254H46.8348L47.0087 79.5776H47.2984ZM49.9645 81.1425L49.8486 81.4323H49.6747L49.4429 81.1425C49.3656 81.0652 49.2883 80.8913 49.2111 80.6209H49.4429L49.6747 81.0845C49.7134 81.1232 49.81 81.1425 49.9645 81.1425ZM48.6315 79.6356C48.6701 79.597 48.6894 79.597 48.6894 79.6356L49.0372 79.9833C48.9599 80.022 48.8633 80.022 48.7474 79.9833C48.6701 79.9447 48.6122 79.9061 48.5735 79.8674C48.6122 79.7901 48.6315 79.6936 48.6315 79.5776V79.6356ZM49.5588 80.447C49.5202 80.447 49.4815 80.4663 49.4429 80.505L49.3849 80.389C49.4622 80.3118 49.4815 80.2152 49.4429 80.0993V79.8095L49.5588 79.6356L49.8486 79.8095C49.7713 80.0413 49.7327 80.2345 49.7327 80.389C49.694 80.4277 49.6361 80.447 49.5588 80.447ZM47.1246 77.1434C47.2405 77.0661 47.3371 77.1241 47.4144 77.3173C47.2984 77.4332 47.1825 77.4525 47.0666 77.3752L47.1246 77.1434ZM47.8201 77.2013L48.1678 77.3173L47.7042 77.665C47.6269 77.5491 47.6269 77.4525 47.7042 77.3752C47.7814 77.2979 47.8201 77.24 47.8201 77.2013ZM49.5588 78.0707L49.4429 78.7662H49.327C49.2883 78.6889 49.269 78.631 49.269 78.5923C49.3077 78.5151 49.327 78.4378 49.327 78.3605L49.269 78.1287C49.3463 78.09 49.4429 78.0707 49.5588 78.0707ZM47.5303 55.8148C47.5689 55.8534 47.5882 55.8921 47.5882 55.9307H47.1825C47.2212 55.7375 47.3371 55.6795 47.5303 55.7568V55.8148ZM58.1946 69.0872C57.4991 69.6668 56.6877 69.9566 55.7603 69.9566L51.8771 70.0145C51.2203 70.0145 50.8532 69.6861 50.7759 69.0292V57.7274C50.7759 57.341 50.7953 57.0319 50.8339 56.8001C50.8725 56.491 50.9691 56.2784 51.1237 56.1625C51.2782 56.008 51.5101 55.8921 51.8192 55.8148H52.2249H53.6159C54.1568 55.7761 54.7944 55.7761 55.5285 55.8148C56.9581 55.8921 58.04 56.491 58.7742 57.6115C59.1219 58.1524 59.2958 58.8479 59.2958 59.698C59.3344 60.3162 59.3537 61.2242 59.3537 62.422L59.4117 62.8857V63.0596C59.4503 63.0982 59.4503 63.1561 59.4117 63.2334C59.3731 63.3493 59.3537 63.5619 59.3537 63.871V64.9142C59.3537 65.9188 59.3151 66.6723 59.2378 67.1746C59.1219 67.9087 58.7742 68.5463 58.1946 69.0872ZM48.0519 55.467C47.9746 55.4284 47.8973 55.4091 47.8201 55.4091L47.5882 55.525L47.5303 55.467L47.7042 55.0034L47.936 55.1772L48.1678 55.0613L48.3417 55.4091C48.2644 55.4863 48.1678 55.5057 48.0519 55.467ZM47.2405 54.7136C47.2791 54.8295 47.2405 54.8874 47.1246 54.8874H47.0666V54.8295C47.0666 54.6363 47.1246 54.4238 47.2405 54.1919C47.4337 54.1919 47.5303 54.2113 47.5303 54.2499L47.7042 54.4238H47.878L48.0519 54.6556V54.7715L47.7042 54.7136L47.4723 54.7715C47.395 54.6943 47.3564 54.617 47.3564 54.5397C47.2791 54.5397 47.2405 54.5977 47.2405 54.7136ZM48.6315 54.5397C48.7088 54.617 48.7667 54.6943 48.8054 54.7715C48.5735 54.7329 48.4383 54.6363 48.3997 54.4817C48.361 54.3272 48.3224 54.2113 48.2837 54.134L48.3417 53.9601C48.419 53.9215 48.5156 53.9022 48.6315 53.9022C48.6701 53.8635 48.7474 53.8442 48.8633 53.8442C48.8633 53.9988 48.844 54.0954 48.8054 54.134L48.5735 54.2499C48.5349 54.3272 48.5542 54.4238 48.6315 54.5397ZM48.1099 53.3805C48.1871 53.3419 48.3031 53.3226 48.4576 53.3226L48.2837 53.6703L48.1099 53.3805ZM49.327 53.3805C49.2497 53.4578 49.1338 53.4578 48.9792 53.3805C48.9792 53.3033 49.0179 53.226 49.0951 53.1487C49.2111 53.0714 49.269 53.0135 49.269 52.9748L49.2111 52.8589L49.5009 52.801C49.5009 52.9941 49.4815 53.1294 49.4429 53.2067L49.327 53.3805ZM50.3123 53.5544C50.3123 53.593 50.293 53.593 50.2543 53.5544C50.0225 53.5544 49.8679 53.4771 49.7906 53.3226L50.1964 53.1487L50.4282 53.4964C50.3895 53.4964 50.3509 53.5158 50.3123 53.5544ZM50.9498 53.7283C51.0271 53.6896 51.1237 53.6896 51.2396 53.7283L51.0657 53.9601L50.8339 53.9022V53.7862C50.8725 53.7476 50.9112 53.7283 50.9498 53.7283ZM61.73 61.7265C61.8846 61.8038 61.9619 61.939 61.9619 62.1322L61.8459 62.2481C61.6914 62.0936 61.6528 61.9197 61.73 61.7265ZM54.6012 54.4238C54.5239 54.4238 54.3887 54.4817 54.1955 54.5977C54.2341 54.4045 54.2921 54.2692 54.3693 54.1919C54.3693 54.1533 54.35 54.1147 54.3114 54.076C54.3114 53.9988 54.3693 53.9408 54.4853 53.9022C54.4853 54.0181 54.5239 54.1919 54.6012 54.4238ZM61.2664 59.0025L61.5562 59.4082H61.2664V59.0025ZM56.5138 53.9022C56.2047 53.9794 55.9729 54.0181 55.8183 54.0181H55.5865L55.8183 53.7283C55.8569 53.7669 55.9342 53.7862 56.0501 53.7862L56.4558 53.4964L56.5138 53.9022ZM56.5138 53.4385C56.4752 53.4385 56.4558 53.4578 56.4558 53.4964L56.282 52.8589C56.166 52.8203 56.0501 52.8782 55.9342 53.0328C55.8569 53.1873 55.7797 53.2646 55.7024 53.2646C55.741 53.0714 55.799 52.9169 55.8763 52.801C55.9535 52.6464 56.0888 52.4532 56.282 52.2214C56.3979 52.2214 56.4752 52.2407 56.5138 52.2793L56.6297 52.3373L56.5718 52.5691L56.5138 52.685L56.5718 53.4385H56.5138ZM62.1357 58.5388L61.9039 58.9445H61.2664C61.1505 58.79 61.1311 58.5968 61.2084 58.3649C61.363 58.4422 61.4982 58.4809 61.6141 58.4809C61.73 58.5195 61.9039 58.5388 62.1357 58.5388ZM58.4844 55.0034L58.7742 55.1772L58.4844 55.467C58.4071 55.3898 58.3878 55.3125 58.4264 55.2352C58.4651 55.1579 58.4844 55.0806 58.4844 55.0034ZM61.3243 57.8433C61.363 57.8433 61.4596 57.882 61.6141 57.9592L61.5562 58.0751L61.1505 57.9592C61.1118 57.9206 61.1118 57.882 61.1505 57.8433C61.2277 57.8047 61.2857 57.8047 61.3243 57.8433ZM57.673 53.9601C57.5184 54.0374 57.4025 54.1147 57.3252 54.1919L56.9195 54.0181C56.9581 53.9408 56.9775 53.7862 56.9775 53.5544L56.8615 53.3226L57.3832 53.1487C57.4991 53.3033 57.6343 53.4385 57.7889 53.5544C57.7116 53.709 57.673 53.8442 57.673 53.9601ZM61.2084 57.5535C61.247 57.5535 61.305 57.5149 61.3823 57.4376L61.788 57.6115C61.5175 57.6888 61.3243 57.6694 61.2084 57.5535ZM61.2084 57.5535C61.1698 57.5535 61.0925 57.5342 60.9766 57.4956C60.8993 57.4569 60.822 57.399 60.7447 57.3217L60.8607 57.2058C60.9379 57.2444 60.9959 57.3024 61.0345 57.3796L61.2084 57.5535ZM60.5129 56.4523L60.6288 56.5682L60.397 56.7421C60.397 56.7035 60.3777 56.6842 60.339 56.6842L60.5129 56.4523ZM57.4991 54.6556C57.4991 54.8102 57.4025 54.9261 57.2093 55.0034L56.9775 54.8874C57.0161 54.8488 57.0354 54.7908 57.0354 54.7136C57.2286 54.7136 57.3832 54.6943 57.4991 54.6556ZM57.8468 54.8295L57.4991 54.6556L57.4411 54.5977C57.4411 54.5204 57.4798 54.4624 57.557 54.4238L57.615 54.1919H58.0207L58.1946 53.7862L58.5423 53.6124C58.6582 53.6124 58.7935 53.651 58.948 53.7283L59.1219 53.6124V53.9022C59.0446 53.9794 58.948 54.0181 58.8321 54.0181C58.7162 53.9794 58.6389 53.9601 58.6003 53.9601L58.4844 54.3079L58.1366 54.3658L57.8468 54.8295ZM59.1219 53.6124C59.0833 53.4578 59.1799 53.3033 59.4117 53.1487L59.8174 53.5544C59.7401 53.593 59.6629 53.6124 59.5856 53.6124C59.5083 53.5737 59.4503 53.5544 59.4117 53.5544C59.3731 53.5158 59.3151 53.5158 59.2378 53.5544C59.1992 53.593 59.1606 53.6124 59.1219 53.6124ZM57.2093 52.685L57.0934 52.9169H56.8615V52.801L57.2093 52.3952L57.557 52.685C57.5184 52.7237 57.4604 52.743 57.3832 52.743C57.3059 52.7044 57.2479 52.685 57.2093 52.685ZM59.5856 54.9454C59.7015 54.9454 59.8367 55.0227 59.9913 55.1772L59.7595 55.3511L59.4117 55.0034C59.4503 54.9647 59.5083 54.9454 59.5856 54.9454ZM60.8607 55.2932L60.9766 55.4091V56.4523C60.8993 56.375 60.8413 56.2978 60.8027 56.2205C60.7641 56.1046 60.7061 56.0273 60.6288 55.9887L60.5129 56.0466L60.2811 56.1046L59.9333 55.7568L60.1652 55.6989L60.397 55.8727L60.5709 55.4091C60.6095 55.3704 60.6481 55.3511 60.6868 55.3511C60.7641 55.3511 60.822 55.3318 60.8607 55.2932ZM63.2369 58.8866C63.1597 59.0025 63.0631 59.0604 62.9472 59.0604H62.8312C62.8312 58.9445 62.8699 58.8479 62.9472 58.7706C63.0631 58.6934 63.1404 58.6161 63.179 58.5388L62.9472 58.0172C63.0631 57.9785 63.1404 57.9979 63.179 58.0751C63.2563 58.1524 63.3142 58.1717 63.3529 58.1331L63.5267 58.6547C63.4495 58.6934 63.3529 58.7706 63.2369 58.8866ZM58.8901 54.4817L59.1799 54.1919V54.5397C59.064 54.5397 58.9674 54.5204 58.8901 54.4817ZM62.2517 56.1625C62.2517 56.5103 62.3483 56.8387 62.5414 57.1478C62.4642 57.1865 62.3869 57.1865 62.3096 57.1478C62.2323 57.0705 62.1551 57.0319 62.0778 57.0319L61.788 57.0899L61.73 57.0319C61.8073 56.9933 61.8653 56.916 61.9039 56.8001C61.9425 56.6841 61.9619 56.6069 61.9619 56.5682V56.3364C62.0005 56.2205 62.0971 56.1625 62.2517 56.1625ZM58.948 52.6271V52.8589L58.8321 52.9169L58.5423 52.743L58.6582 52.6271C58.7355 52.5498 58.8321 52.5498 58.948 52.6271ZM61.1505 54.6556C61.1505 54.7329 61.1311 54.7908 61.0925 54.8295L60.5709 54.7715L60.397 54.3658L60.6868 54.3079L61.1505 54.6556Z" fill="black"/>
</g>
<defs>
<filter id="filter0_f_3253_15903" x="0" y="0" width="140" height="140" filterUnits="userSpaceOnUse" color-interpolation-filters="sRGB">
<feFlood flood-opacity="0" result="BackgroundImageFix"/>
<feBlend mode="normal" in="SourceGraphic" in2="BackgroundImageFix" result="shape"/>
<feGaussianBlur stdDeviation="5" result="effect1_foregroundBlur_3253_15903"/>
</filter>
<filter id="filter1_d_3253_15903" x="1.35132" y="1.35132" width="137.297" height="137.297" filterUnits="userSpaceOnUse" color-interpolation-filters="sRGB">
<feFlood flood-opacity="0" result="BackgroundImageFix"/>
<feColorMatrix in="SourceAlpha" type="matrix" values="0 0 0 0 0 0 0 0 0 0 0 0 0 0 0 0 0 0 127 0" result="hardAlpha"/>
<feOffset/>
<feGaussianBlur stdDeviation="10"/>
<feComposite in2="hardAlpha" operator="out"/>
<feColorMatrix type="matrix" values="0 0 0 0 1 0 0 0 0 1 0 0 0 0 1 0 0 0 0.1 0"/>
<feBlend mode="normal" in2="BackgroundImageFix" result="effect1_dropShadow_3253_15903"/>
<feBlend mode="normal" in="SourceGraphic" in2="effect1_dropShadow_3253_15903" result="shape"/>
</filter>
</defs>
</svg>
