<svg width="250" height="250" viewBox="0 0 100 100" fill="none" xmlns="http://www.w3.org/2000/svg">
<g filter="url(#filter0_f_11_5292)">
<circle cx="37" cy="32" r="15" fill="#96D6FF"/>
</g>
<g filter="url(#filter1_f_11_5292)">
<circle cx="28" cy="47" r="15" fill="#B9F4FD"/>
</g>
<g filter="url(#filter2_f_11_5292)">
<circle cx="31" cy="60" r="15" fill="#ADDDD0"/>
</g>
<g filter="url(#filter3_f_11_5292)">
<circle cx="41" cy="71" r="15" fill="#CEBCFA"/>
</g>
<g filter="url(#filter4_f_11_5292)">
<circle cx="57" cy="72" r="15" fill="#FEBBCC"/>
</g>
<g filter="url(#filter5_f_11_5292)">
<circle cx="69" cy="62" r="15" fill="#FE9993"/>
</g>
<g filter="url(#filter6_f_11_5292)">
<circle cx="72" cy="46" r="15" fill="#E9B384"/>
</g>
<g filter="url(#filter7_f_11_5292)">
<circle cx="64" cy="32" r="15" fill="#E2CEC7"/>
</g>
<g filter="url(#filter8_f_11_5292)">
<circle cx="49" cy="28" r="15" fill="#F1DD8E"/>
</g>
<g filter="url(#filter9_d_11_5292)">
<path fill-rule="evenodd" clip-rule="evenodd" d="M50 20C33.4315 20 20 33.4315 20 50C20 66.5685 33.4315 80 50 80C66.5685 80 80 66.5685 80 50C80 33.4315 66.5685 20 50 20ZM61.1324 61.446C61.2992 61.8034 61.5732 61.9821 61.9545 61.9821H62.6336C62.8957 62.0059 63.2054 62.0059 63.5628 61.9821C63.8964 61.9821 64.1109 61.8749 64.2062 61.6604C64.23 61.6366 64.2419 61.577 64.2419 61.4817C64.2657 61.2673 64.2062 60.9456 64.0632 60.5167L63.4199 58.551L62.9195 57.0141L61.7043 53.4758L61.5971 53.0826C61.5732 53.0112 61.5613 52.9039 61.5613 52.761C61.5613 52.4512 61.6686 52.201 61.883 52.0104C61.9545 51.9628 62.0141 51.9032 62.0617 51.8317C62.4191 51.5696 62.7527 51.2479 63.0625 50.8667C63.7058 50.0804 64.0632 49.175 64.1347 48.1504C64.1823 47.6977 64.2062 47.0186 64.2062 46.1132V44.9337C64.2062 44.3857 64.1942 43.9806 64.1704 43.7185C64.1228 43.0514 64.0632 42.551 63.9917 42.2174C63.7296 41.0022 63.1458 40.0253 62.2404 39.2867C61.2397 38.4765 60.0483 38.0476 58.6663 38H53.5554C53.4124 38 53.2933 38.0119 53.198 38.0357C52.8644 38.1072 52.6857 38.3097 52.6619 38.6433C52.638 38.7386 52.6261 38.8816 52.6261 39.0722V60.624C52.6261 60.8861 52.638 61.0767 52.6619 61.1958C52.6857 61.3864 52.7333 61.5294 52.8048 61.6247C52.9001 61.6962 53.0431 61.7558 53.2337 61.8034C53.2814 61.8272 53.3648 61.8391 53.4839 61.8391C53.7698 61.863 54.1987 61.8749 54.7706 61.8749C54.8897 61.8749 55.0208 61.8511 55.1637 61.8034C55.4735 61.7319 55.6403 61.577 55.6641 61.3388C55.7117 61.0052 55.7356 60.755 55.7356 60.5882V54.1549C55.7356 53.7975 55.8071 53.4996 55.95 53.2613C56.093 53.1422 56.2836 53.0469 56.5219 52.9754C56.5934 52.9516 56.7006 52.9397 56.8435 52.9397C57.1056 52.9397 57.3916 52.9992 57.7013 53.1184C58.2255 53.3566 58.5591 53.726 58.7021 54.2263C58.9403 54.9888 59.3216 56.1325 59.8458 57.6575C60.4176 59.3969 60.7869 60.5167 60.9537 61.0171C60.9776 61.1124 61.0371 61.2554 61.1324 61.446ZM54.3774 60.9814C54.4251 61.029 54.4608 61.0528 54.4846 61.0528C54.5323 60.9575 54.5561 60.8861 54.5561 60.8384L54.3417 60.5525C54.3893 60.5048 54.4132 60.4691 54.4132 60.4453C54.4132 60.2785 54.4251 60.1593 54.4489 60.0878L54.5561 59.9806L54.7348 59.9449V60.0878H54.9135C54.9135 60.2308 54.9731 60.3023 55.0922 60.3023L54.985 60.5882C54.9612 60.6359 54.9493 60.7193 54.9493 60.8384H54.8063C54.7825 60.8622 54.7706 60.9099 54.7706 60.9814L54.9493 61.0886C54.9731 61.0648 54.9969 61.0528 55.0208 61.0528C55.0684 61.0528 55.1041 61.0409 55.128 61.0171V61.3388C55.0803 61.3626 55.0446 61.3626 55.0208 61.3388C54.9969 61.2911 54.9612 61.2554 54.9135 61.2316C54.7706 61.303 54.6872 61.3507 54.6633 61.3745H54.5204C54.4966 61.3507 54.4608 61.3507 54.4132 61.3745L54.2345 61.4103C54.1868 61.3864 54.1749 61.3507 54.1987 61.303C54.2225 61.2316 54.2225 61.1839 54.1987 61.1601L54.163 60.9456C54.0677 60.9933 54.02 61.0648 54.02 61.1601C54.0438 61.2316 54.0558 61.2792 54.0558 61.303V61.3745C54.0081 61.2554 53.877 61.1362 53.6626 61.0171L53.4839 61.0886C53.4362 61.0648 53.4362 61.0171 53.4839 60.9456L53.3409 60.6954C53.5289 60.6485 53.6473 60.5436 53.6963 60.3808C53.6968 60.3805 53.6973 60.38 53.6976 60.3792C53.6981 60.3781 53.6983 60.3762 53.6983 60.3738L53.6963 60.3808C53.6896 60.3838 53.6665 60.3457 53.6269 60.2665L53.7698 59.9449C53.6745 59.8019 53.6269 59.6947 53.6269 59.6232C53.6269 59.5517 53.6388 59.4922 53.6626 59.4445L53.7698 59.4803V59.7304C53.8413 59.7543 53.9009 59.7304 53.9485 59.659C54.02 59.5398 54.0319 59.3969 53.9843 59.2301C53.9366 59.1348 53.9485 59.0752 54.02 59.0514L54.1272 59.2658C54.1749 59.242 54.2583 59.2301 54.3774 59.2301L54.5561 59.4445L54.842 59.2658L54.6276 59.0871C54.6514 59.0871 54.711 59.0633 54.8063 59.0156L55.0565 59.1228C55.0327 59.1943 55.0208 59.3015 55.0208 59.4445L54.9135 59.4088C54.8897 59.4564 54.9016 59.516 54.9493 59.5875C55.0208 59.6351 55.0565 59.6709 55.0565 59.6947C55.0088 59.7424 54.9493 59.7424 54.8778 59.6947C54.8063 59.647 54.7467 59.6232 54.6991 59.6232C54.6753 59.647 54.6633 59.6947 54.6633 59.7662C54.6395 59.79 54.6157 59.79 54.5919 59.7662L54.5561 59.6947L54.4489 59.6232C54.4251 59.6947 54.4132 59.7781 54.4132 59.8734C54.437 59.9687 54.4489 60.0402 54.4489 60.0878L54.163 60.0521L54.1272 60.0878V60.3023H54.02L53.8056 60.0521C53.8056 60.2904 53.7937 60.4453 53.7698 60.5167C53.9128 60.612 54.0081 60.6597 54.0558 60.6597C54.1511 60.6597 54.2464 60.6954 54.3417 60.7669L54.3774 60.9814ZM54.6276 59.0871C54.5561 59.0156 54.5204 58.968 54.5204 58.9441C54.5204 58.9203 54.5561 58.8727 54.6276 58.8012C54.6514 58.8488 54.6514 58.9084 54.6276 58.9799V59.0871ZM55.1637 60.0164L55.2709 60.1236L55.0922 60.2308H55.0565V60.1951L55.1637 60.0164ZM54.9493 58.4795C54.9731 58.5033 54.9969 58.5629 55.0208 58.6582C54.9016 58.5391 54.8301 58.4557 54.8063 58.408C54.8778 58.408 54.9254 58.4319 54.9493 58.4795ZM54.5561 57.5502C54.5561 57.6694 54.5442 57.7766 54.5204 57.8719C54.4727 57.8481 54.4132 57.8362 54.3417 57.8362L54.4846 57.5145L54.5561 57.5502ZM54.985 58.1578H55.128L55.3424 58.3723C55.2233 58.3485 55.1041 58.277 54.985 58.1578ZM55.0565 57.6217C54.985 57.6456 54.8778 57.7051 54.7348 57.8004C54.711 57.7051 54.711 57.6336 54.7348 57.586C54.7825 57.5145 54.8063 57.4669 54.8063 57.443H54.9135C54.9374 57.3477 55.0565 57.312 55.2709 57.3358L55.128 57.4073C55.1041 57.4311 55.0565 57.443 54.985 57.443H54.9493C54.9254 57.4669 54.9135 57.5026 54.9135 57.5502L55.0565 57.6217ZM60.0245 56.3351C60.096 56.2159 60.1913 56.204 60.3104 56.2993L60.1317 56.4423L60.0245 56.3351ZM62.026 50.3306C61.9307 50.2115 61.8473 50.2115 61.7758 50.3306H62.026ZM61.7043 49.58C61.6566 49.6992 61.5852 49.7468 61.4899 49.723C61.4899 49.6992 61.5137 49.6158 61.5613 49.4728L61.7043 49.58ZM61.7043 49.2226C61.7758 49.2703 61.8592 49.2703 61.9545 49.2226C61.8354 49.1511 61.752 49.1511 61.7043 49.2226ZM57.5226 49.9017C57.3082 49.9017 57.1295 49.9136 56.9865 49.9374C56.6768 49.9851 56.3789 49.9494 56.093 49.8302C55.8547 49.6873 55.7356 49.449 55.7356 49.1154V41.8957C55.7356 41.7766 55.7475 41.6813 55.7713 41.6098C55.8428 41.3001 56.0334 41.1452 56.3432 41.1452C56.6053 41.1452 56.8078 41.1333 56.9508 41.1094L57.5226 41.0737H57.6298C57.7013 41.0499 57.749 41.0499 57.7728 41.0737C57.8443 41.0975 57.9634 41.1094 58.1302 41.1094H58.4876C58.9165 41.1571 59.2144 41.2167 59.3811 41.2881C60.2627 41.5264 60.8108 42.0983 61.0252 43.0037L61.0967 43.647C61.1205 44.0759 61.1324 44.7074 61.1324 45.5413L61.0252 47.3641L60.9537 48.1861C60.7631 48.9486 60.3223 49.449 59.6313 49.6873C59.3216 49.8064 59.0237 49.866 58.7378 49.866H58.0945C57.9515 49.8898 57.7609 49.9017 57.5226 49.9017ZM55.4139 39.3939C55.3662 39.4177 55.3067 39.4415 55.2352 39.4654V39.2509H55.4496L55.5569 39.108L55.5926 39.3224C55.545 39.3462 55.4854 39.3701 55.4139 39.3939ZM57.2724 39.8943C57.2963 39.9181 57.3201 39.9657 57.3439 40.0372L57.1295 39.787H57.2367C57.2605 39.8109 57.2724 39.8466 57.2724 39.8943ZM56.6648 39.1794C56.7601 39.2033 56.7959 39.2867 56.7721 39.4296C56.6768 39.3343 56.6053 39.2747 56.5576 39.2509C56.6053 39.2033 56.641 39.1794 56.6648 39.1794ZM62.7408 44.4333C62.7884 44.4333 62.8718 44.4572 62.991 44.5048V44.6478C62.9671 44.624 62.9314 44.612 62.8837 44.612C62.8599 44.612 62.8361 44.6001 62.8123 44.5763L62.5263 44.5406C62.6217 44.4691 62.6931 44.4333 62.7408 44.4333ZM62.4549 44.1117C62.3596 44.1593 62.2881 44.1832 62.2404 44.1832C62.2404 44.1593 62.2285 44.1236 62.2047 44.0759V43.8615L62.4549 44.1117ZM58.3089 39.1437C58.4281 39.2152 58.4161 39.3224 58.2732 39.4654C58.2493 39.4177 58.2374 39.3462 58.2374 39.2509L58.3089 39.1437ZM63.1339 43.8615L63.0982 43.9687L62.8123 44.0045L62.6693 43.79C62.574 43.7424 62.5025 43.6947 62.4549 43.647L62.705 43.5398C62.705 43.516 62.7289 43.4803 62.7765 43.4326L62.9195 43.5398L62.8123 43.8257C62.8838 43.8496 62.991 43.8615 63.1339 43.8615ZM63.2769 44.0045L63.5986 44.1117L63.2769 44.1832V44.0045ZM62.5263 42.682C62.4549 42.7059 62.3715 42.7178 62.2762 42.7178C62.2762 42.5986 62.3238 42.5391 62.4191 42.5391L62.5263 42.682ZM62.3476 42.1459L62.4549 42.2174L62.026 42.5033C62.026 42.408 62.0379 42.3485 62.0617 42.3246C62.1094 42.277 62.2047 42.2174 62.3476 42.1459ZM60.9537 40.6448C60.9061 40.4542 60.8823 40.347 60.8823 40.3231C60.8823 40.4184 60.9061 40.5257 60.9537 40.6448ZM61.9902 41.1809C62.0855 41.2286 62.0975 41.2881 62.026 41.3596C61.9545 41.3358 61.9307 41.3001 61.9545 41.2524L61.9902 41.1809ZM61.5971 40.6448C61.5971 40.6686 61.6209 40.7044 61.6686 40.752L61.4541 40.8235C61.4541 40.752 61.5018 40.6925 61.5971 40.6448ZM35.4646 61.9106C35.6552 61.9583 35.8101 61.9821 35.9293 61.9821H37.073C37.2159 61.9821 37.4066 61.9583 37.6448 61.9106C37.8593 61.8868 38.0022 61.7558 38.0737 61.5175C38.1214 61.2792 38.1452 61.1005 38.1452 60.9814V54.2621C38.1452 54.1429 38.169 53.9404 38.2167 53.6545C38.2167 53.4877 38.312 53.3566 38.5026 53.2613C38.6456 53.2137 38.7528 53.1899 38.8243 53.1899C39.3485 53.1422 39.7416 53.1184 40.0037 53.1184C40.3135 53.1422 40.5756 53.1541 40.79 53.1541C41.0045 53.1303 41.1832 53.1184 41.3261 53.1184C42.0171 53.1184 42.72 52.9516 43.4348 52.618C43.9829 52.3797 44.5428 51.9747 45.1147 51.4028C45.7104 50.7833 46.1273 50.0685 46.3656 49.2584C46.5562 48.3529 46.6634 47.6858 46.6873 47.2569L46.723 46.3276V45.72C46.7468 45.4817 46.7468 45.2077 46.723 44.898L46.5086 43.0752C46.4371 42.5272 46.3179 42.0268 46.1512 41.5741C45.7461 40.5972 45.21 39.8466 44.5428 39.3224C43.5421 38.5361 42.3745 38.1429 41.0402 38.1429C39.9442 38.1191 38.2882 38.1072 36.0722 38.1072C35.9769 38.1072 35.834 38.131 35.6433 38.1787C35.3098 38.2263 35.1191 38.4289 35.0715 38.7863L35 39.7155V43.9687C35.0238 44.8027 35.0357 46.0655 35.0357 47.7572V51.5815C35.0596 52.4393 35.0715 53.7379 35.0715 55.4773C35.0715 57.1928 35.0477 58.4914 35 59.373V60.338L35.0715 61.2673C35.0715 61.3388 35.0953 61.446 35.143 61.589C35.1906 61.7558 35.2978 61.863 35.4646 61.9106ZM36.108 59.4445C36.1794 59.516 36.1794 59.6113 36.108 59.7304C36.108 59.7066 36.0841 59.6709 36.0365 59.6232C36.0127 59.5517 36.0365 59.4922 36.108 59.4445ZM35.7506 58.7654C35.7744 58.7416 35.822 58.7297 35.8935 58.7297L35.7506 58.9084C35.7267 58.8131 35.7267 58.7654 35.7506 58.7654ZM36.0365 58.3723C36.1794 58.4438 36.2509 58.5153 36.2509 58.5867V58.9799C36.1794 58.9799 36.1437 58.9561 36.1437 58.9084L36.0722 58.551L35.8578 58.4438C35.7863 58.4438 35.7029 58.4676 35.6076 58.5153C35.5838 58.3961 35.6076 58.3127 35.6791 58.2651L35.822 58.1221C35.8459 58.2174 35.9173 58.3008 36.0365 58.3723ZM37.2517 59.0871L37.1802 59.3015L37.073 59.2301C37.073 59.1109 37.0849 59.0275 37.1087 58.9799L37.1445 58.9441L37.2517 59.0871ZM36.108 57.7647L36.2867 58.0149L36.2509 58.1221C36.1794 58.0744 36.0722 58.0268 35.9293 57.9791C35.8816 57.8838 35.8578 57.7885 35.8578 57.6932L36.108 57.7647ZM36.3939 58.1221L36.5726 58.2293L36.4654 58.4438L36.3224 58.3365L36.3939 58.1221ZM36.1794 56.8712C36.2271 56.9426 36.2033 56.9784 36.108 56.9784L35.965 56.9069V56.8354C36.0127 56.8593 36.0841 56.8712 36.1794 56.8712ZM36.5369 57.0141H36.6441L36.787 57.3001L36.5369 57.2643V57.0141ZM36.4654 56.8712H36.3582L36.3939 56.6925L36.5369 56.7639C36.5369 56.8116 36.513 56.8473 36.4654 56.8712ZM37.3946 57.5502C37.4661 57.5502 37.5138 57.5622 37.5376 57.586L37.2159 57.6932L36.8943 57.443C36.8943 57.3715 36.9181 57.3239 36.9657 57.3001L37.073 57.1928C37.1206 57.169 37.1445 57.1452 37.1445 57.1214C37.1683 57.0737 37.1921 57.038 37.2159 57.0141C37.3112 57.038 37.3827 57.1333 37.4304 57.3001L37.3232 57.4073C37.3232 57.4788 37.347 57.5264 37.3946 57.5502ZM36.108 56.5495C36.0603 56.6448 36.0127 56.7163 35.965 56.7639L35.7863 56.6567L36.1437 56.4065C36.1437 56.478 36.1318 56.5257 36.108 56.5495ZM36.2867 56.3351L36.1437 56.4065L36.0722 56.2278C36.0049 56.1156 35.9904 56.014 36.0288 55.923L36.1794 56.0134L36.2867 56.3351ZM36.2867 56.3351L36.3582 56.478L36.6798 56.3708C36.799 56.4899 36.93 56.5495 37.073 56.5495L37.0372 56.3708L36.7156 56.1921C36.5726 56.1921 36.4654 56.204 36.3939 56.2278L36.2867 56.3351ZM36.0007 55.9062V55.8704C36.0007 55.8228 36.0127 55.7751 36.0365 55.7275C36.0841 55.6798 36.108 55.6322 36.108 55.5845L36.0722 55.513L35.9293 55.5488C35.9293 55.5249 35.9054 55.4654 35.8578 55.3701H36.1794L36.0365 55.1556C35.8459 55.2747 35.7029 55.4058 35.6076 55.5488C35.6552 55.5488 35.7267 55.5726 35.822 55.6202C35.7744 55.7632 35.7267 55.93 35.6791 56.1206H35.7148L35.822 55.9062H36.0007ZM37.6448 56.8712L37.5733 57.0499H37.4661L37.3232 56.8712C37.2755 56.8235 37.2278 56.7163 37.1802 56.5495H37.3232L37.4661 56.8354C37.4899 56.8593 37.5495 56.8712 37.6448 56.8712ZM36.8228 55.9419C36.8466 55.9181 36.8585 55.9181 36.8585 55.9419L37.073 56.1563C37.0253 56.1802 36.9657 56.1802 36.8943 56.1563C36.8466 56.1325 36.8109 56.1087 36.787 56.0849C36.8109 56.0372 36.8228 55.9776 36.8228 55.9062V55.9419ZM37.3946 56.4423C37.3708 56.4423 37.347 56.4542 37.3232 56.478L37.2874 56.4065C37.3351 56.3589 37.347 56.2993 37.3232 56.2278V56.0491L37.3946 55.9419L37.5733 56.0491C37.5257 56.1921 37.5019 56.3112 37.5019 56.4065C37.478 56.4304 37.4423 56.4423 37.3946 56.4423ZM35.8935 54.405C35.965 54.3574 36.0246 54.3931 36.0722 54.5123C36.0007 54.5838 35.9293 54.5957 35.8578 54.548L35.8935 54.405ZM36.3224 54.4408L36.5369 54.5123L36.2509 54.7267C36.2033 54.6552 36.2033 54.5957 36.2509 54.548C36.2986 54.5004 36.3224 54.4646 36.3224 54.4408ZM37.3946 54.9769L37.3232 55.4058H37.2517C37.2278 55.3581 37.2159 55.3224 37.2159 55.2986C37.2398 55.2509 37.2517 55.2033 37.2517 55.1556L37.2159 55.0126C37.2636 54.9888 37.3232 54.9769 37.3946 54.9769ZM36.1437 41.2524C36.1675 41.2762 36.1794 41.3001 36.1794 41.3239H35.9293C35.9531 41.2048 36.0246 41.169 36.1437 41.2167V41.2524ZM42.72 49.4371C42.2911 49.7945 41.7908 49.9732 41.2189 49.9732L38.8243 50.0089C38.4192 50.0089 38.1929 49.8064 38.1452 49.4013V42.4319C38.1452 42.1936 38.1571 42.003 38.1809 41.86C38.2048 41.6694 38.2643 41.5383 38.3596 41.4669C38.455 41.3715 38.5979 41.3001 38.7885 41.2524H39.0387H39.8965C40.2301 41.2286 40.6232 41.2286 41.076 41.2524C41.9576 41.3001 42.6247 41.6694 43.0774 42.3604C43.2919 42.694 43.3991 43.1228 43.3991 43.647C43.4229 44.0283 43.4348 44.5882 43.4348 45.3269L43.4706 45.6128V45.72C43.4944 45.7438 43.4944 45.7796 43.4706 45.8272C43.4468 45.8987 43.4348 46.0298 43.4348 46.2204V46.8637C43.4348 47.4832 43.411 47.9479 43.3634 48.2576C43.2919 48.7103 43.0774 49.1035 42.72 49.4371ZM36.4654 41.038C36.4177 41.0141 36.3701 41.0022 36.3224 41.0022L36.1794 41.0737L36.1437 41.038L36.2509 40.752L36.3939 40.8593L36.5369 40.7878L36.6441 41.0022C36.5964 41.0499 36.5369 41.0618 36.4654 41.038ZM35.965 40.5733C35.9888 40.6448 35.965 40.6805 35.8935 40.6805H35.8578V40.6448C35.8578 40.5257 35.8935 40.3946 35.965 40.2517C36.0841 40.2517 36.1437 40.2636 36.1437 40.2874L36.2509 40.3946H36.3582L36.4654 40.5376V40.6091L36.2509 40.5733L36.108 40.6091C36.0603 40.5614 36.0365 40.5138 36.0365 40.4661C35.9888 40.4661 35.965 40.5018 35.965 40.5733ZM36.8228 40.4661C36.8704 40.5138 36.9062 40.5614 36.93 40.6091C36.787 40.5852 36.7036 40.5257 36.6798 40.4304C36.656 40.3351 36.6322 40.2636 36.6083 40.2159L36.6441 40.1087C36.6917 40.0849 36.7513 40.073 36.8228 40.073C36.8466 40.0491 36.8943 40.0372 36.9657 40.0372C36.9657 40.1325 36.9538 40.1921 36.93 40.2159L36.787 40.2874C36.7632 40.3351 36.7751 40.3946 36.8228 40.4661ZM36.5011 39.7513C36.5488 39.7275 36.6203 39.7155 36.7156 39.7155L36.6083 39.93L36.5011 39.7513ZM37.2517 39.7513C37.204 39.7989 37.1325 39.7989 37.0372 39.7513C37.0372 39.7036 37.0611 39.656 37.1087 39.6083C37.1802 39.5607 37.2159 39.5249 37.2159 39.5011L37.1802 39.4296L37.3589 39.3939C37.3589 39.513 37.347 39.5964 37.3232 39.6441L37.2517 39.7513ZM37.8593 39.8585C37.8593 39.8823 37.8474 39.8823 37.8235 39.8585C37.6806 39.8585 37.5853 39.8109 37.5376 39.7155L37.7878 39.6083L37.9308 39.8228C37.9069 39.8228 37.8831 39.8347 37.8593 39.8585ZM38.2524 39.9657C38.3001 39.9419 38.3596 39.9419 38.4311 39.9657L38.3239 40.1087L38.1809 40.073V40.0015C38.2048 39.9776 38.2286 39.9657 38.2524 39.9657ZM45.0432 45.1482L44.9717 45.2196C44.8764 45.1243 44.8526 45.0171 44.9002 44.898C44.9955 44.9456 45.0432 45.029 45.0432 45.1482ZM40.5041 40.3946C40.4564 40.3946 40.373 40.4304 40.2539 40.5018C40.2777 40.3827 40.3135 40.2993 40.3611 40.2517C40.3611 40.2278 40.3492 40.204 40.3254 40.1802C40.3254 40.1325 40.3611 40.0968 40.4326 40.073C40.4326 40.1444 40.4564 40.2517 40.5041 40.3946ZM44.6143 43.2182L44.793 43.4683H44.6143V43.2182ZM41.6835 40.073C41.4929 40.1206 41.35 40.1444 41.2547 40.1444H41.1117L41.2547 39.9657C41.2785 39.9896 41.3261 40.0015 41.3976 40.0015L41.6478 39.8228L41.6835 40.073ZM41.6835 39.787C41.6597 39.787 41.6478 39.7989 41.6478 39.8228L41.5406 39.4296C41.4691 39.4058 41.3976 39.4415 41.3261 39.5368C41.2785 39.6322 41.2308 39.6798 41.1832 39.6798C41.207 39.5607 41.2427 39.4654 41.2904 39.3939C41.338 39.2986 41.4214 39.1794 41.5406 39.0365C41.6121 39.0365 41.6597 39.0484 41.6835 39.0722L41.755 39.108L41.7193 39.2509L41.6835 39.3224L41.7193 39.787H41.6835ZM45.1504 42.9322L45.0074 43.1824H44.6143C44.5428 43.0871 44.5309 42.968 44.5786 42.825C44.6739 42.8727 44.7573 42.8965 44.8287 42.8965C44.9002 42.9203 45.0074 42.9322 45.1504 42.9322ZM42.8987 40.752L43.0774 40.8593L42.8987 41.038C42.8511 40.9903 42.8392 40.9426 42.863 40.895C42.8868 40.8473 42.8987 40.7997 42.8987 40.752ZM44.65 42.5033C44.6739 42.5033 44.7334 42.5272 44.8287 42.5748L44.793 42.6463L44.5428 42.5748C44.519 42.551 44.519 42.5272 44.5428 42.5033C44.5905 42.4795 44.6262 42.4795 44.65 42.5033ZM42.3984 40.1087C42.3031 40.1564 42.2316 40.204 42.1839 40.2517L41.9337 40.1444C41.9576 40.0968 41.9695 40.0015 41.9695 39.8585L41.898 39.7155L42.2197 39.6083C42.2911 39.7036 42.3745 39.787 42.4698 39.8585C42.4222 39.9538 42.3984 40.0372 42.3984 40.1087ZM44.5786 42.3246C44.6024 42.3246 44.6381 42.3008 44.6858 42.2531L44.936 42.3604C44.7692 42.408 44.65 42.3961 44.5786 42.3246ZM44.5786 42.3246C44.5547 42.3246 44.5071 42.3127 44.4356 42.2889C44.3879 42.2651 44.3403 42.2293 44.2926 42.1817L44.3641 42.1102C44.4118 42.134 44.4475 42.1698 44.4713 42.2174L44.5786 42.3246ZM44.1497 41.6456L44.2211 41.717L44.0782 41.8243C44.0782 41.8004 44.0663 41.7885 44.0424 41.7885L44.1497 41.6456ZM42.2911 40.5376C42.2911 40.6329 42.2316 40.7044 42.1124 40.752L41.9695 40.6805C41.9933 40.6567 42.0052 40.621 42.0052 40.5733C42.1243 40.5733 42.2197 40.5614 42.2911 40.5376ZM42.5056 40.6448L42.2911 40.5376L42.2554 40.5018C42.2554 40.4542 42.2792 40.4184 42.3269 40.3946L42.3626 40.2517H42.6128L42.72 40.0015L42.9345 39.8943C43.006 39.8943 43.0894 39.9181 43.1847 39.9657L43.2919 39.8943V40.073C43.2442 40.1206 43.1847 40.1444 43.1132 40.1444C43.0417 40.1206 42.994 40.1087 42.9702 40.1087L42.8987 40.3231L42.6843 40.3589L42.5056 40.6448ZM43.2919 39.8943C43.2681 39.7989 43.3276 39.7036 43.4706 39.6083L43.7208 39.8585C43.6731 39.8823 43.6255 39.8943 43.5778 39.8943C43.5302 39.8704 43.4944 39.8585 43.4706 39.8585C43.4468 39.8347 43.411 39.8347 43.3634 39.8585C43.3395 39.8823 43.3157 39.8943 43.2919 39.8943ZM42.1124 39.3224L42.041 39.4654H41.898V39.3939L42.1124 39.1437L42.3269 39.3224C42.3031 39.3462 42.2673 39.3581 42.2197 39.3581C42.172 39.3343 42.1363 39.3224 42.1124 39.3224ZM43.5778 40.7163C43.6493 40.7163 43.7327 40.7639 43.828 40.8593L43.685 40.9665L43.4706 40.752C43.4944 40.7282 43.5302 40.7163 43.5778 40.7163ZM44.3641 40.9307L44.4356 41.0022V41.6456C44.3879 41.5979 44.3522 41.5502 44.3284 41.5026C44.3045 41.4311 44.2688 41.3835 44.2211 41.3596L44.1497 41.3954L44.0067 41.4311L43.7923 41.2167L43.9352 41.1809L44.0782 41.2881L44.1854 41.0022C44.2092 40.9784 44.2331 40.9665 44.2569 40.9665C44.3045 40.9665 44.3403 40.9546 44.3641 40.9307ZM45.8295 43.1467C45.7818 43.2182 45.7223 43.2539 45.6508 43.2539H45.5793C45.5793 43.1824 45.6031 43.1228 45.6508 43.0752C45.7223 43.0275 45.7699 42.9799 45.7937 42.9322L45.6508 42.6106C45.7223 42.5867 45.7699 42.5986 45.7937 42.6463C45.8414 42.694 45.8771 42.7059 45.901 42.682L46.0082 43.0037C45.9605 43.0275 45.901 43.0752 45.8295 43.1467ZM43.1489 40.4304L43.3276 40.2517V40.4661C43.2561 40.4661 43.1966 40.4542 43.1489 40.4304ZM45.2219 41.4669C45.2219 41.6813 45.2815 41.8838 45.4006 42.0744C45.3529 42.0983 45.3053 42.0983 45.2576 42.0744C45.21 42.0268 45.1623 42.003 45.1147 42.003L44.936 42.0387L44.9002 42.003C44.9479 41.9791 44.9836 41.9315 45.0074 41.86C45.0313 41.7885 45.0432 41.7409 45.0432 41.717V41.5741C45.067 41.5026 45.1266 41.4669 45.2219 41.4669ZM43.1847 39.2867V39.4296L43.1132 39.4654L42.9345 39.3581L43.006 39.2867C43.0536 39.239 43.1132 39.239 43.1847 39.2867ZM44.5428 40.5376C44.5428 40.5852 44.5309 40.621 44.5071 40.6448L44.1854 40.6091L44.0782 40.3589L44.2569 40.3231L44.5428 40.5376Z" fill="black"/>
</g>
<defs>
<filter id="filter0_f_11_5292" x="12" y="7" width="50" height="50" filterUnits="userSpaceOnUse" color-interpolation-filters="sRGB">
<feFlood flood-opacity="0" result="BackgroundImageFix"/>
<feBlend mode="normal" in="SourceGraphic" in2="BackgroundImageFix" result="shape"/>
<feGaussianBlur stdDeviation="5" result="effect1_foregroundBlur_11_5292"/>
</filter>
<filter id="filter1_f_11_5292" x="3" y="22" width="50" height="50" filterUnits="userSpaceOnUse" color-interpolation-filters="sRGB">
<feFlood flood-opacity="0" result="BackgroundImageFix"/>
<feBlend mode="normal" in="SourceGraphic" in2="BackgroundImageFix" result="shape"/>
<feGaussianBlur stdDeviation="5" result="effect1_foregroundBlur_11_5292"/>
</filter>
<filter id="filter2_f_11_5292" x="6" y="35" width="50" height="50" filterUnits="userSpaceOnUse" color-interpolation-filters="sRGB">
<feFlood flood-opacity="0" result="BackgroundImageFix"/>
<feBlend mode="normal" in="SourceGraphic" in2="BackgroundImageFix" result="shape"/>
<feGaussianBlur stdDeviation="5" result="effect1_foregroundBlur_11_5292"/>
</filter>
<filter id="filter3_f_11_5292" x="16" y="46" width="50" height="50" filterUnits="userSpaceOnUse" color-interpolation-filters="sRGB">
<feFlood flood-opacity="0" result="BackgroundImageFix"/>
<feBlend mode="normal" in="SourceGraphic" in2="BackgroundImageFix" result="shape"/>
<feGaussianBlur stdDeviation="5" result="effect1_foregroundBlur_11_5292"/>
</filter>
<filter id="filter4_f_11_5292" x="32" y="47" width="50" height="50" filterUnits="userSpaceOnUse" color-interpolation-filters="sRGB">
<feFlood flood-opacity="0" result="BackgroundImageFix"/>
<feBlend mode="normal" in="SourceGraphic" in2="BackgroundImageFix" result="shape"/>
<feGaussianBlur stdDeviation="5" result="effect1_foregroundBlur_11_5292"/>
</filter>
<filter id="filter5_f_11_5292" x="44" y="37" width="50" height="50" filterUnits="userSpaceOnUse" color-interpolation-filters="sRGB">
<feFlood flood-opacity="0" result="BackgroundImageFix"/>
<feBlend mode="normal" in="SourceGraphic" in2="BackgroundImageFix" result="shape"/>
<feGaussianBlur stdDeviation="5" result="effect1_foregroundBlur_11_5292"/>
</filter>
<filter id="filter6_f_11_5292" x="47" y="21" width="50" height="50" filterUnits="userSpaceOnUse" color-interpolation-filters="sRGB">
<feFlood flood-opacity="0" result="BackgroundImageFix"/>
<feBlend mode="normal" in="SourceGraphic" in2="BackgroundImageFix" result="shape"/>
<feGaussianBlur stdDeviation="5" result="effect1_foregroundBlur_11_5292"/>
</filter>
<filter id="filter7_f_11_5292" x="39" y="7" width="50" height="50" filterUnits="userSpaceOnUse" color-interpolation-filters="sRGB">
<feFlood flood-opacity="0" result="BackgroundImageFix"/>
<feBlend mode="normal" in="SourceGraphic" in2="BackgroundImageFix" result="shape"/>
<feGaussianBlur stdDeviation="5" result="effect1_foregroundBlur_11_5292"/>
</filter>
<filter id="filter8_f_11_5292" x="24" y="3" width="50" height="50" filterUnits="userSpaceOnUse" color-interpolation-filters="sRGB">
<feFlood flood-opacity="0" result="BackgroundImageFix"/>
<feBlend mode="normal" in="SourceGraphic" in2="BackgroundImageFix" result="shape"/>
<feGaussianBlur stdDeviation="5" result="effect1_foregroundBlur_11_5292"/>
</filter>
<filter id="filter9_d_11_5292" x="0" y="0" width="100" height="100" filterUnits="userSpaceOnUse" color-interpolation-filters="sRGB">
<feFlood flood-opacity="0" result="BackgroundImageFix"/>
<feColorMatrix in="SourceAlpha" type="matrix" values="0 0 0 0 0 0 0 0 0 0 0 0 0 0 0 0 0 0 127 0" result="hardAlpha"/>
<feOffset/>
<feGaussianBlur stdDeviation="10"/>
<feComposite in2="hardAlpha" operator="out"/>
<feColorMatrix type="matrix" values="0 0 0 0 1 0 0 0 0 1 0 0 0 0 1 0 0 0 0.1 0"/>
<feBlend mode="normal" in2="BackgroundImageFix" result="effect1_dropShadow_11_5292"/>
<feBlend mode="normal" in="SourceGraphic" in2="effect1_dropShadow_11_5292" result="shape"/>
</filter>
</defs>
</svg>
