<svg width="149" height="140" viewBox="0 0 149 140" fill="none" xmlns="http://www.w3.org/2000/svg">
<g filter="url(#filter0_f_3253_15917)">
<path d="M73.2432 40.8108C73.2432 54.2448 62.3529 65.1351 48.9189 65.1351C35.485 65.1351 24.5946 54.2448 24.5946 40.8108C24.5946 27.3769 35.485 16.4865 48.9189 16.4865C62.3529 16.4865 73.2432 27.3769 73.2432 40.8108Z" fill="#96D6FF"/>
<path d="M58.6486 65.1351C58.6486 78.5691 47.7583 89.4595 34.3243 89.4595C20.8904 89.4595 10 78.5691 10 65.1351C10 51.7012 20.8904 40.8108 34.3243 40.8108C47.7583 40.8108 58.6486 51.7012 58.6486 65.1351Z" fill="#B9F4FD"/>
<path d="M63.5135 86.2162C63.5135 99.6502 52.6231 110.541 39.1892 110.541C25.7552 110.541 14.8649 99.6502 14.8649 86.2162C14.8649 72.7823 25.7552 61.8919 39.1892 61.8919C52.6231 61.8919 63.5135 72.7823 63.5135 86.2162Z" fill="#ADDDD0"/>
<path d="M79.7297 104.054C79.7297 117.488 68.8394 128.378 55.4054 128.378C41.9715 128.378 31.0811 117.488 31.0811 104.054C31.0811 90.6201 41.9715 79.7297 55.4054 79.7297C68.8394 79.7297 79.7297 90.6201 79.7297 104.054Z" fill="#CEBCFA"/>
<path d="M105.676 105.676C105.676 119.11 94.7853 130 81.3514 130C67.9174 130 57.027 119.11 57.027 105.676C57.027 92.2417 67.9174 81.3514 81.3514 81.3514C94.7853 81.3514 105.676 92.2417 105.676 105.676Z" fill="#FEBBCC"/>
<path d="M125.135 89.4595C125.135 102.893 114.245 113.784 100.811 113.784C87.3769 113.784 76.4865 102.893 76.4865 89.4595C76.4865 76.0255 87.3769 65.1351 100.811 65.1351C114.245 65.1351 125.135 76.0255 125.135 89.4595Z" fill="#FE9993"/>
<path d="M130 63.5135C130 76.9475 119.11 87.8378 105.676 87.8378C92.2417 87.8378 81.3514 76.9475 81.3514 63.5135C81.3514 50.0796 92.2417 39.1892 105.676 39.1892C119.11 39.1892 130 50.0796 130 63.5135Z" fill="#E9B384"/>
<path d="M117.027 40.8108C117.027 54.2448 106.137 65.1351 92.7027 65.1351C79.2687 65.1351 68.3784 54.2448 68.3784 40.8108C68.3784 27.3769 79.2687 16.4865 92.7027 16.4865C106.137 16.4865 117.027 27.3769 117.027 40.8108Z" fill="#E2CEC7"/>
<path d="M92.7027 34.3243C92.7027 47.7583 81.8123 58.6486 68.3784 58.6486C54.9444 58.6486 44.0541 47.7583 44.0541 34.3243C44.0541 20.8904 54.9444 10 68.3784 10C81.8123 10 92.7027 20.8904 92.7027 34.3243Z" fill="#F1DD8E"/>
</g>
<g filter="url(#filter1_d_3253_15917)">
<path fill-rule="evenodd" clip-rule="evenodd" d="M70.0001 21.3514C43.1322 21.3514 21.3514 43.1322 21.3514 70.0001C21.3514 96.868 43.1322 118.649 70.0001 118.649C96.868 118.649 118.649 96.868 118.649 70.0001C118.649 43.1322 96.868 21.3514 70.0001 21.3514ZM88.0527 88.561C88.3231 89.1406 88.7675 89.4304 89.3857 89.4304H90.4869C90.9119 89.4691 91.4142 89.4691 91.9938 89.4304C92.5348 89.4304 92.8825 89.2565 93.037 88.9088C93.0757 88.8701 93.095 88.7736 93.095 88.619C93.1337 88.2712 93.037 87.7496 92.8052 87.0541L91.762 83.8664L90.9506 81.3742L88.98 75.6364L88.8061 74.9988C88.7675 74.8829 88.7481 74.709 88.7481 74.4772C88.7481 73.9749 88.922 73.5692 89.2698 73.2601C89.3857 73.1828 89.4823 73.0862 89.5596 72.9703C90.1391 72.5453 90.6801 72.0236 91.1824 71.4054C92.2256 70.1303 92.8052 68.6621 92.9211 67.0006C92.9984 66.2665 93.037 65.1653 93.037 63.697V61.7844C93.037 60.8957 93.0177 60.2388 92.9791 59.8138C92.9018 58.7319 92.8052 57.9205 92.6893 57.3795C92.2643 55.409 91.3176 53.8248 89.8493 52.627C88.2265 51.3132 86.2946 50.6178 84.0535 50.5405H75.7655C75.5337 50.5405 75.3405 50.5598 75.1859 50.5984C74.645 50.7143 74.3552 51.0428 74.3166 51.5837C74.2779 51.7383 74.2586 51.9701 74.2586 52.2792V87.228C74.2586 87.653 74.2779 87.9621 74.3166 88.1553C74.3552 88.4644 74.4325 88.6963 74.5484 88.8508C74.7029 88.9668 74.9348 89.0633 75.2439 89.1406C75.3212 89.1793 75.4564 89.1986 75.6496 89.1986C76.1133 89.2372 76.8088 89.2565 77.7361 89.2565C77.9293 89.2565 78.1418 89.2179 78.3736 89.1406C78.8759 89.0247 79.1464 88.7736 79.185 88.3872C79.2623 87.8462 79.301 87.4405 79.301 87.17V76.7376C79.301 76.158 79.4169 75.675 79.6487 75.2886C79.8805 75.0954 80.1897 74.9409 80.576 74.825C80.692 74.7863 80.8658 74.767 81.0977 74.767C81.5227 74.767 81.9864 74.8636 82.4887 75.0568C83.3387 75.4432 83.8797 76.0421 84.1115 76.8535C84.4979 78.0899 85.1161 79.9446 85.9662 82.4175C86.8935 85.2381 87.4924 87.0541 87.7629 87.8655C87.8015 88.0201 87.8981 88.2519 88.0527 88.561ZM77.0986 87.8076C77.1758 87.8849 77.2338 87.9235 77.2724 87.9235C77.3497 87.7689 77.3883 87.653 77.3883 87.5758L77.0406 87.1121C77.1179 87.0348 77.1565 86.9769 77.1565 86.9382C77.1565 86.6677 77.1758 86.4745 77.2145 86.3586L77.3883 86.1848L77.6781 86.1268V86.3586H77.9679C77.9679 86.5905 78.0645 86.7064 78.2577 86.7064L78.0838 87.17C78.0452 87.2473 78.0259 87.3826 78.0259 87.5758H77.794C77.7554 87.6144 77.7361 87.6917 77.7361 87.8076L78.0259 87.9815C78.0645 87.9428 78.1032 87.9235 78.1418 87.9235C78.2191 87.9235 78.277 87.9042 78.3157 87.8655V88.3872C78.2384 88.4258 78.1804 88.4258 78.1418 88.3872C78.1032 88.3099 78.0452 88.2519 77.9679 88.2133C77.7361 88.3292 77.6009 88.4065 77.5622 88.4451H77.3304C77.2917 88.4065 77.2338 88.4065 77.1565 88.4451L76.8667 88.5031C76.7894 88.4644 76.7701 88.4065 76.8088 88.3292C76.8474 88.2133 76.8474 88.136 76.8088 88.0974L76.7508 87.7496C76.5962 87.8269 76.519 87.9428 76.519 88.0974C76.5576 88.2133 76.5769 88.2906 76.5769 88.3292V88.4451C76.4996 88.2519 76.2871 88.0587 75.9394 87.8655L75.6496 87.9815C75.5723 87.9428 75.5723 87.8655 75.6496 87.7496L75.4178 87.3439C75.7225 87.2677 75.9146 87.0976 75.994 86.8336C75.9962 86.8326 75.9973 86.8288 75.9973 86.8223L75.994 86.8336C75.9832 86.8386 75.9456 86.7768 75.8814 86.6484L76.1133 86.1268C75.9587 85.895 75.8814 85.7211 75.8814 85.6052C75.8814 85.4893 75.9007 85.3927 75.9394 85.3154L76.1133 85.3733V85.7791C76.2292 85.8177 76.3258 85.7791 76.4031 85.6631C76.519 85.4699 76.5383 85.2381 76.461 84.9676C76.3837 84.8131 76.4031 84.7165 76.519 84.6778L76.6928 85.0256C76.7701 84.987 76.9054 84.9676 77.0986 84.9676L77.3883 85.3154L77.852 85.0256L77.5043 84.7358C77.5429 84.7358 77.6395 84.6972 77.794 84.6199L78.1998 84.7938C78.1611 84.9097 78.1418 85.0835 78.1418 85.3154L77.9679 85.2574C77.9293 85.3347 77.9486 85.4313 78.0259 85.5472C78.1418 85.6245 78.1998 85.6824 78.1998 85.7211C78.1225 85.7984 78.0259 85.7984 77.91 85.7211C77.794 85.6438 77.6975 85.6052 77.6202 85.6052C77.5815 85.6438 77.5622 85.7211 77.5622 85.837C77.5236 85.8756 77.4849 85.8756 77.4463 85.837L77.3883 85.7211L77.2145 85.6052C77.1758 85.7211 77.1565 85.8563 77.1565 86.0109C77.1951 86.1654 77.2145 86.2813 77.2145 86.3586L76.7508 86.3007L76.6928 86.3586V86.7064H76.519L76.1712 86.3007C76.1712 86.6871 76.1519 86.9382 76.1133 87.0541C76.3451 87.2087 76.4996 87.286 76.5769 87.286C76.7315 87.286 76.886 87.3439 77.0406 87.4598L77.0986 87.8076ZM77.5043 84.7358C77.3883 84.6199 77.3304 84.5426 77.3304 84.504C77.3304 84.4653 77.3883 84.3881 77.5043 84.2721C77.5429 84.3494 77.5429 84.446 77.5043 84.5619V84.7358ZM78.3736 86.2427L78.5475 86.4166L78.2577 86.5905H78.1998V86.5325L78.3736 86.2427ZM78.0259 83.7505C78.0645 83.7892 78.1032 83.8857 78.1418 84.0403C77.9486 83.8471 77.8327 83.7119 77.794 83.6346C77.91 83.6346 77.9872 83.6732 78.0259 83.7505ZM77.3883 82.2436C77.3883 82.4368 77.369 82.6107 77.3304 82.7652C77.2531 82.7266 77.1565 82.7073 77.0406 82.7073L77.2724 82.1856L77.3883 82.2436ZM78.0838 83.2289H78.3157L78.6634 83.5766C78.4702 83.538 78.277 83.4221 78.0838 83.2289ZM78.1998 82.3595C78.0838 82.3982 77.91 82.4948 77.6781 82.6493C77.6395 82.4948 77.6395 82.3788 77.6781 82.3016C77.7554 82.1856 77.794 82.1084 77.794 82.0697H77.9679C78.0066 81.9152 78.1998 81.8572 78.5475 81.8958L78.3157 82.0118C78.277 82.0504 78.1998 82.0697 78.0838 82.0697H78.0259C77.9872 82.1084 77.9679 82.1663 77.9679 82.2436L78.1998 82.3595ZM86.2559 80.273C86.3719 80.0798 86.5264 80.0605 86.7196 80.2151L86.4298 80.4469L86.2559 80.273ZM89.5016 70.536C89.347 70.3428 89.2118 70.3428 89.0959 70.536H89.5016ZM88.98 69.3189C88.9027 69.5121 88.7868 69.5894 88.6322 69.5508C88.6322 69.5121 88.6709 69.3769 88.7481 69.1451L88.98 69.3189ZM88.98 68.7393C89.0959 68.8166 89.2311 68.8166 89.3857 68.7393C89.1925 68.6234 89.0573 68.6234 88.98 68.7393ZM82.1989 69.8405C81.8511 69.8405 81.5613 69.8599 81.3295 69.8985C80.8272 69.9758 80.3442 69.9178 79.8805 69.7246C79.4942 69.4928 79.301 69.1064 79.301 68.5655V56.8579C79.301 56.6647 79.3203 56.5102 79.3589 56.3942C79.4748 55.8919 79.7839 55.6408 80.2863 55.6408C80.7113 55.6408 81.0397 55.6215 81.2715 55.5828L82.1989 55.5249H82.3727C82.4887 55.4862 82.5659 55.4862 82.6046 55.5249C82.7205 55.5635 82.9137 55.5828 83.1842 55.5828H83.7637C84.4592 55.6601 84.9422 55.7567 85.2127 55.8726C86.6423 56.259 87.531 57.1863 87.8788 58.6546L87.9947 59.6979C88.0333 60.3934 88.0527 61.4173 88.0527 62.7696L87.8788 65.7255L87.7629 67.0586C87.4538 68.295 86.7389 69.1064 85.6184 69.4928C85.1161 69.686 84.6331 69.7826 84.1694 69.7826H83.1262C82.8944 69.8212 82.5853 69.8405 82.1989 69.8405ZM78.7793 52.8008C78.7021 52.8395 78.6055 52.8781 78.4895 52.9168V52.569H78.8373L79.0112 52.3372L79.0691 52.6849C78.9919 52.7236 78.8953 52.7622 78.7793 52.8008ZM81.7932 53.6123C81.8318 53.6509 81.8704 53.7282 81.9091 53.8441L81.5613 53.4384H81.7352C81.7738 53.477 81.7932 53.535 81.7932 53.6123ZM80.8079 52.4531C80.9624 52.4917 81.0204 52.627 80.9818 52.8588C80.8272 52.7042 80.7113 52.6076 80.634 52.569C80.7113 52.4917 80.7692 52.4531 80.8079 52.4531ZM90.6608 60.9729C90.738 60.9729 90.8733 61.0116 91.0665 61.0889V61.3207C91.0278 61.2821 90.9699 61.2627 90.8926 61.2627C90.854 61.2627 90.8153 61.2434 90.7767 61.2048L90.313 61.1468C90.4676 61.0309 90.5835 60.9729 90.6608 60.9729ZM90.1971 60.4513C90.0425 60.5286 89.9266 60.5672 89.8493 60.5672C89.8493 60.5286 89.83 60.4706 89.7914 60.3934V60.0456L90.1971 60.4513ZM83.4739 52.3951C83.6671 52.511 83.6478 52.6849 83.416 52.9168C83.3774 52.8395 83.358 52.7236 83.358 52.569L83.4739 52.3951ZM91.2983 60.0456L91.2403 60.2195L90.7767 60.2774L90.5449 59.9297C90.3903 59.8524 90.2744 59.7751 90.1971 59.6979L90.6028 59.524C90.6028 59.4854 90.6414 59.4274 90.7187 59.3501L90.9506 59.524L90.7767 59.9877C90.8926 60.0263 91.0665 60.0456 91.2983 60.0456ZM91.5301 60.2774L92.0518 60.4513L91.5301 60.5672V60.2774ZM90.313 58.133C90.1971 58.1716 90.0619 58.191 89.9073 58.191C89.9073 57.9978 89.9846 57.9012 90.1391 57.9012L90.313 58.133ZM90.0232 57.2636L90.1971 57.3795L89.5016 57.8432C89.5016 57.6886 89.5209 57.5921 89.5596 57.5534C89.6368 57.4761 89.7914 57.3795 90.0232 57.2636ZM87.7629 54.8294C87.6856 54.5203 87.6469 54.3464 87.6469 54.3078C87.6469 54.4623 87.6856 54.6362 87.7629 54.8294ZM89.4436 55.6987C89.5982 55.776 89.6175 55.8726 89.5016 55.9885C89.3857 55.9499 89.347 55.8919 89.3857 55.8147L89.4436 55.6987ZM88.8061 54.8294C88.8061 54.868 88.8447 54.926 88.922 55.0033L88.5743 55.1192C88.5743 55.0033 88.6516 54.9067 88.8061 54.8294ZM46.4292 89.3145C46.7383 89.3918 46.9894 89.4304 47.1826 89.4304H49.0373C49.2691 89.4304 49.5782 89.3918 49.9646 89.3145C50.3124 89.2759 50.5442 89.0633 50.6601 88.677C50.7374 88.2906 50.776 88.0008 50.776 87.8076V76.9114C50.776 76.7183 50.8147 76.3898 50.8919 75.9262C50.8919 75.6557 51.0465 75.4432 51.3556 75.2886C51.5874 75.2113 51.7613 75.1727 51.8772 75.1727C52.7273 75.0954 53.3648 75.0568 53.7899 75.0568C54.2922 75.0954 54.7172 75.1147 55.0649 75.1147C55.4127 75.0761 55.7025 75.0568 55.9343 75.0568C57.0548 75.0568 58.1947 74.7863 59.3538 74.2454C60.2425 73.859 61.1505 73.2021 62.0779 72.2748C63.0438 71.2702 63.72 70.111 64.1064 68.7973C64.4155 67.329 64.5894 66.2471 64.628 65.5516L64.686 64.0447V63.0594C64.7246 62.6731 64.7246 62.2287 64.686 61.7264L64.3382 58.7705C64.2223 57.8818 64.0291 57.0704 63.7587 56.3363C63.1018 54.7521 62.2324 53.535 61.1505 52.6849C59.5277 51.4098 57.6344 50.7723 55.4706 50.7723C53.6933 50.7337 51.0079 50.7143 47.4145 50.7143C47.2599 50.7143 47.0281 50.753 46.719 50.8303C46.178 50.9075 45.8689 51.236 45.7916 51.8156L45.6757 53.3225V60.2195C45.7143 61.5718 45.7337 63.6197 45.7337 66.3631V72.5646C45.7723 73.9556 45.7916 76.0614 45.7916 78.882C45.7916 81.664 45.753 83.7698 45.6757 85.1995V86.7643L45.7916 88.2713C45.7916 88.3872 45.8303 88.561 45.9075 88.7929C45.9848 89.0633 46.1587 89.2372 46.4292 89.3145ZM47.4724 85.3154C47.5883 85.4313 47.5883 85.5859 47.4724 85.7791C47.4724 85.7404 47.4338 85.6824 47.3565 85.6052C47.3179 85.4893 47.3565 85.3927 47.4724 85.3154ZM46.8928 84.2142C46.9315 84.1755 47.0087 84.1562 47.1247 84.1562L46.8928 84.446C46.8542 84.2915 46.8542 84.2142 46.8928 84.2142ZM47.3565 83.5766C47.5883 83.6926 47.7042 83.8085 47.7042 83.9244V84.5619C47.5883 84.5619 47.5304 84.5233 47.5304 84.446L47.4145 83.8664L47.0667 83.6926C46.9508 83.6926 46.8156 83.7312 46.661 83.8085C46.6224 83.6153 46.661 83.48 46.7769 83.4028L47.0087 83.1709C47.0474 83.3255 47.1633 83.4607 47.3565 83.5766ZM49.3271 84.7358L49.2112 85.0835L49.0373 84.9676C49.0373 84.7744 49.0566 84.6392 49.0952 84.5619L49.1532 84.504L49.3271 84.7358ZM47.4724 82.5914L47.7622 82.9971L47.7042 83.1709C47.5883 83.0937 47.4145 83.0164 47.1826 82.9391C47.1053 82.7845 47.0667 82.63 47.0667 82.4754L47.4724 82.5914ZM47.9361 83.1709L48.2259 83.3448L48.052 83.6926L47.8202 83.5187L47.9361 83.1709ZM47.5883 81.1424C47.6656 81.2583 47.627 81.3163 47.4724 81.3163L47.2406 81.2004V81.0844C47.3179 81.1231 47.4338 81.1424 47.5883 81.1424ZM48.1679 81.3742H48.3418L48.5736 81.8379L48.1679 81.7799V81.3742ZM48.052 81.1424H47.8781L47.9361 80.8526L48.1679 80.9685C48.1679 81.0458 48.1293 81.1038 48.052 81.1424ZM49.5589 82.2436C49.6748 82.2436 49.7521 82.2629 49.7907 82.3016L49.2691 82.4754L48.7475 82.0697C48.7475 81.9538 48.7861 81.8765 48.8634 81.8379L49.0373 81.664C49.1146 81.6254 49.1532 81.5867 49.1532 81.5481C49.1918 81.4708 49.2305 81.4129 49.2691 81.3742C49.4237 81.4129 49.5396 81.5674 49.6169 81.8379L49.443 82.0118C49.443 82.1277 49.4816 82.205 49.5589 82.2436ZM47.4724 80.6208C47.3951 80.7753 47.3179 80.8912 47.2406 80.9685L46.9508 80.7946L47.5304 80.3889C47.5304 80.5049 47.511 80.5821 47.4724 80.6208ZM47.7622 80.273L47.5304 80.3889L47.4145 80.0991C47.3053 79.9172 47.2818 79.7524 47.344 79.6048L47.5883 79.7514L47.7622 80.273ZM47.7622 80.273L47.8781 80.5049L48.3997 80.331C48.5929 80.5242 48.8054 80.6208 49.0373 80.6208L48.9793 80.331L48.4577 80.0412C48.2259 80.0412 48.052 80.0605 47.9361 80.0991L47.7622 80.273ZM47.2985 79.5775V79.5196C47.2985 79.4423 47.3179 79.365 47.3565 79.2877C47.4338 79.2105 47.4724 79.1332 47.4724 79.0559L47.4145 78.94L47.1826 78.9979C47.1826 78.9593 47.144 78.8627 47.0667 78.7082H47.5883L47.3565 78.3604C47.0474 78.5536 46.8156 78.7661 46.661 78.9979C46.7383 78.9979 46.8542 79.0366 47.0087 79.1139C46.9315 79.3457 46.8542 79.6162 46.7769 79.9253H46.8349L47.0087 79.5775H47.2985ZM49.9646 81.1424L49.8487 81.4322H49.6748L49.443 81.1424C49.3657 81.0651 49.2884 80.8912 49.2112 80.6208H49.443L49.6748 81.0844C49.7135 81.1231 49.8101 81.1424 49.9646 81.1424ZM48.6316 79.6355C48.6702 79.5968 48.6895 79.5968 48.6895 79.6355L49.0373 79.9832C48.96 80.0219 48.8634 80.0219 48.7475 79.9832C48.6702 79.9446 48.6123 79.906 48.5736 79.8673C48.6123 79.79 48.6316 79.6934 48.6316 79.5775V79.6355ZM49.5589 80.4469C49.5203 80.4469 49.4816 80.4662 49.443 80.5049L49.385 80.3889C49.4623 80.3117 49.4816 80.2151 49.443 80.0991V79.8094L49.5589 79.6355L49.8487 79.8094C49.7714 80.0412 49.7328 80.2344 49.7328 80.3889C49.6941 80.4276 49.6362 80.4469 49.5589 80.4469ZM47.1247 77.1433C47.2406 77.066 47.3372 77.124 47.4145 77.3172C47.2985 77.4331 47.1826 77.4524 47.0667 77.3751L47.1247 77.1433ZM47.8202 77.2012L48.1679 77.3172L47.7042 77.6649C47.627 77.549 47.627 77.4524 47.7042 77.3751C47.7815 77.2978 47.8202 77.2399 47.8202 77.2012ZM49.5589 78.0706L49.443 78.7661H49.3271C49.2884 78.6888 49.2691 78.6309 49.2691 78.5922C49.3078 78.515 49.3271 78.4377 49.3271 78.3604L49.2691 78.1286C49.3464 78.0899 49.443 78.0706 49.5589 78.0706ZM47.5304 55.8147C47.569 55.8533 47.5883 55.8919 47.5883 55.9306H47.1826C47.2213 55.7374 47.3372 55.6794 47.5304 55.7567V55.8147ZM58.1947 69.0871C57.4992 69.6667 56.6878 69.9565 55.7604 69.9565L51.8772 70.0144C51.2204 70.0144 50.8533 69.686 50.776 69.0291V57.7273C50.776 57.3409 50.7953 57.0318 50.834 56.8C50.8726 56.4908 50.9692 56.2783 51.1238 56.1624C51.2783 56.0079 51.5102 55.8919 51.8193 55.8147H52.225H53.616C54.1569 55.776 54.7945 55.776 55.5286 55.8147C56.9582 55.8919 58.0401 56.4908 58.7743 57.6114C59.122 58.1523 59.2959 58.8478 59.2959 59.6979C59.3345 60.3161 59.3538 61.2241 59.3538 62.4219L59.4118 62.8856V63.0594C59.4504 63.0981 59.4504 63.156 59.4118 63.2333C59.3732 63.3492 59.3538 63.5617 59.3538 63.8709V64.9141C59.3538 65.9187 59.3152 66.6722 59.2379 67.1745C59.122 67.9086 58.7743 68.5462 58.1947 69.0871ZM48.052 55.4669C47.9747 55.4283 47.8974 55.409 47.8202 55.409L47.5883 55.5249L47.5304 55.4669L47.7042 55.0033L47.9361 55.1771L48.1679 55.0612L48.3418 55.409C48.2645 55.4862 48.1679 55.5056 48.052 55.4669ZM47.2406 54.7135C47.2792 54.8294 47.2406 54.8873 47.1247 54.8873H47.0667V54.8294C47.0667 54.6362 47.1247 54.4237 47.2406 54.1918C47.4338 54.1918 47.5304 54.2112 47.5304 54.2498L47.7042 54.4237H47.8781L48.052 54.6555V54.7714L47.7042 54.7135L47.4724 54.7714C47.3951 54.6941 47.3565 54.6169 47.3565 54.5396C47.2792 54.5396 47.2406 54.5975 47.2406 54.7135ZM48.6316 54.5396C48.7089 54.6169 48.7668 54.6941 48.8054 54.7714C48.5736 54.7328 48.4384 54.6362 48.3997 54.4816C48.3611 54.3271 48.3225 54.2112 48.2838 54.1339L48.3418 53.96C48.4191 53.9214 48.5157 53.902 48.6316 53.902C48.6702 53.8634 48.7475 53.8441 48.8634 53.8441C48.8634 53.9986 48.8441 54.0952 48.8054 54.1339L48.5736 54.2498C48.535 54.3271 48.5543 54.4237 48.6316 54.5396ZM48.11 53.3804C48.1872 53.3418 48.3031 53.3225 48.4577 53.3225L48.2838 53.6702L48.11 53.3804ZM49.3271 53.3804C49.2498 53.4577 49.1339 53.4577 48.9793 53.3804C48.9793 53.3031 49.018 53.2259 49.0952 53.1486C49.2112 53.0713 49.2691 53.0134 49.2691 52.9747L49.2112 52.8588L49.5009 52.8008C49.5009 52.994 49.4816 53.1293 49.443 53.2066L49.3271 53.3804ZM50.3124 53.5543C50.3124 53.5929 50.293 53.5929 50.2544 53.5543C50.0226 53.5543 49.868 53.477 49.7907 53.3225L50.1964 53.1486L50.4283 53.4963C50.3896 53.4963 50.351 53.5157 50.3124 53.5543ZM50.9499 53.7282C51.0272 53.6895 51.1238 53.6895 51.2397 53.7282L51.0658 53.96L50.834 53.902V53.7861C50.8726 53.7475 50.9113 53.7282 50.9499 53.7282ZM61.7301 61.7264C61.8847 61.8037 61.962 61.9389 61.962 62.1321L61.846 62.248C61.6915 62.0935 61.6528 61.9196 61.7301 61.7264ZM54.6013 54.4237C54.524 54.4237 54.3888 54.4816 54.1956 54.5975C54.2342 54.4044 54.2922 54.2691 54.3694 54.1918C54.3694 54.1532 54.3501 54.1146 54.3115 54.0759C54.3115 53.9986 54.3694 53.9407 54.4854 53.902C54.4854 54.018 54.524 54.1918 54.6013 54.4237ZM61.2665 59.0024L61.5563 59.4081H61.2665V59.0024ZM56.5139 53.902C56.2048 53.9793 55.9729 54.018 55.8184 54.018H55.5866L55.8184 53.7282C55.857 53.7668 55.9343 53.7861 56.0502 53.7861L56.4559 53.4963L56.5139 53.902ZM56.5139 53.4384C56.4753 53.4384 56.4559 53.4577 56.4559 53.4963L56.2821 52.8588C56.1661 52.8202 56.0502 52.8781 55.9343 53.0327C55.857 53.1872 55.7798 53.2645 55.7025 53.2645C55.7411 53.0713 55.7991 52.9168 55.8763 52.8008C55.9536 52.6463 56.0889 52.4531 56.2821 52.2213C56.398 52.2213 56.4753 52.2406 56.5139 52.2792L56.6298 52.3372L56.5718 52.569L56.5139 52.6849L56.5718 53.4384H56.5139ZM62.1358 58.5387L61.904 58.9444H61.2665C61.1505 58.7899 61.1312 58.5967 61.2085 58.3648C61.3631 58.4421 61.4983 58.4807 61.6142 58.4807C61.7301 58.5194 61.904 58.5387 62.1358 58.5387ZM58.4845 55.0033L58.7743 55.1771L58.4845 55.4669C58.4072 55.3896 58.3879 55.3124 58.4265 55.2351C58.4651 55.1578 58.4845 55.0805 58.4845 55.0033ZM61.3244 57.8432C61.3631 57.8432 61.4597 57.8818 61.6142 57.9591L61.5563 58.075L61.1505 57.9591C61.1119 57.9205 61.1119 57.8818 61.1505 57.8432C61.2278 57.8046 61.2858 57.8046 61.3244 57.8432ZM57.673 53.96C57.5185 54.0373 57.4026 54.1146 57.3253 54.1918L56.9196 54.018C56.9582 53.9407 56.9776 53.7861 56.9776 53.5543L56.8616 53.3225L57.3833 53.1486C57.4992 53.3031 57.6344 53.4384 57.789 53.5543C57.7117 53.7089 57.673 53.8441 57.673 53.96ZM61.2085 57.5534C61.2471 57.5534 61.3051 57.5148 61.3824 57.4375L61.7881 57.6114C61.5176 57.6886 61.3244 57.6693 61.2085 57.5534ZM61.2085 57.5534C61.1699 57.5534 61.0926 57.5341 60.9767 57.4955C60.8994 57.4568 60.8221 57.3989 60.7448 57.3216L60.8608 57.2057C60.938 57.2443 60.996 57.3023 61.0346 57.3795L61.2085 57.5534ZM60.3971 56.742C60.3971 56.7034 60.3778 56.684 60.3391 56.684L60.513 56.4522L60.6289 56.5681L60.3971 56.742ZM57.4992 54.6555C57.4992 54.8101 57.4026 54.926 57.2094 55.0033L56.9776 54.8873C57.0162 54.8487 57.0355 54.7907 57.0355 54.7135C57.2287 54.7135 57.3833 54.6941 57.4992 54.6555ZM57.8469 54.8294L57.4992 54.6555L57.4412 54.5975C57.4412 54.5203 57.4799 54.4623 57.5571 54.4237L57.6151 54.1918H58.0208L58.1947 53.7861L58.5424 53.6123C58.6583 53.6123 58.7936 53.6509 58.9481 53.7282L59.122 53.6123V53.902C59.0447 53.9793 58.9481 54.018 58.8322 54.018C58.7163 53.9793 58.639 53.96 58.6004 53.96L58.4845 54.3078L58.1367 54.3657L57.8469 54.8294ZM59.122 53.6123C59.0834 53.4577 59.18 53.3031 59.4118 53.1486L59.8175 53.5543C59.7402 53.5929 59.6629 53.6123 59.5857 53.6123C59.5084 53.5736 59.4504 53.5543 59.4118 53.5543C59.3732 53.5157 59.3152 53.5157 59.2379 53.5543C59.1993 53.5929 59.1606 53.6123 59.122 53.6123ZM57.2094 52.6849L57.0935 52.9168H56.8616V52.8008L57.2094 52.3951L57.5571 52.6849C57.5185 52.7236 57.4605 52.7429 57.3833 52.7429C57.306 52.7042 57.248 52.6849 57.2094 52.6849ZM59.5857 54.9453C59.7016 54.9453 59.8368 55.0226 59.9914 55.1771L59.7595 55.351L59.4118 55.0033C59.4504 54.9646 59.5084 54.9453 59.5857 54.9453ZM60.8608 55.293L60.9767 55.409V56.4522C60.8994 56.3749 60.8414 56.2977 60.8028 56.2204C60.7642 56.1045 60.7062 56.0272 60.6289 55.9885L60.513 56.0465L60.2812 56.1045L59.9334 55.7567L60.1653 55.6987L60.3971 55.8726L60.571 55.409C60.6096 55.3703 60.6482 55.351 60.6869 55.351C60.7642 55.351 60.8221 55.3317 60.8608 55.293ZM63.237 58.8865C63.1598 59.0024 63.0632 59.0603 62.9472 59.0603H62.8313C62.8313 58.9444 62.87 58.8478 62.9472 58.7705C63.0632 58.6933 63.1404 58.616 63.1791 58.5387L62.9472 58.0171C63.0632 57.9784 63.1404 57.9978 63.1791 58.075C63.2564 58.1523 63.3143 58.1716 63.353 58.133L63.5268 58.6546C63.4496 58.6933 63.353 58.7705 63.237 58.8865ZM58.8902 54.4816L59.18 54.1918V54.5396C59.064 54.5396 58.9674 54.5203 58.8902 54.4816ZM62.2517 56.1624C62.2517 56.5102 62.3483 56.8386 62.5415 57.1477C62.4643 57.1863 62.387 57.1863 62.3097 57.1477C62.2324 57.0704 62.1552 57.0318 62.0779 57.0318L61.7881 57.0897L61.7301 57.0318C61.8074 56.9932 61.8654 56.9159 61.904 56.8C61.9426 56.684 61.962 56.6068 61.962 56.5681V56.3363C62.0006 56.2204 62.0972 56.1624 62.2517 56.1624ZM58.9481 52.627V52.8588L58.8322 52.9168L58.5424 52.7429L58.6583 52.627C58.7356 52.5497 58.8322 52.5497 58.9481 52.627ZM61.1505 54.6555C61.1505 54.7328 61.1312 54.7907 61.0926 54.8294L60.571 54.7714L60.3971 54.3657L60.6869 54.3078L61.1505 54.6555Z" fill="white"/>
</g>
<defs>
<filter id="filter0_f_3253_15917" x="0" y="0" width="140" height="140" filterUnits="userSpaceOnUse" color-interpolation-filters="sRGB">
<feFlood flood-opacity="0" result="BackgroundImageFix"/>
<feBlend mode="normal" in="SourceGraphic" in2="BackgroundImageFix" result="shape"/>
<feGaussianBlur stdDeviation="5" result="effect1_foregroundBlur_3253_15917"/>
</filter>
<filter id="filter1_d_3253_15917" x="11.3514" y="1.35144" width="137.297" height="137.297" filterUnits="userSpaceOnUse" color-interpolation-filters="sRGB">
<feFlood flood-opacity="0" result="BackgroundImageFix"/>
<feColorMatrix in="SourceAlpha" type="matrix" values="0 0 0 0 0 0 0 0 0 0 0 0 0 0 0 0 0 0 127 0" result="hardAlpha"/>
<feOffset dx="10"/>
<feGaussianBlur stdDeviation="10"/>
<feComposite in2="hardAlpha" operator="out"/>
<feColorMatrix type="matrix" values="0 0 0 0 0 0 0 0 0 0 0 0 0 0 0 0 0 0 0.2 0"/>
<feBlend mode="normal" in2="BackgroundImageFix" result="effect1_dropShadow_3253_15917"/>
<feBlend mode="normal" in="SourceGraphic" in2="effect1_dropShadow_3253_15917" result="shape"/>
</filter>
</defs>
</svg>
