<svg width="107" height="100" viewBox="0 0 107 100" fill="none" xmlns="http://www.w3.org/2000/svg">
<g filter="url(#filter0_f_11_5392)">
<circle cx="34" cy="32" r="15" fill="#96D6FF"/>
</g>
<g filter="url(#filter1_f_11_5392)">
<circle cx="25" cy="47" r="15" fill="#B9F4FD"/>
</g>
<g filter="url(#filter2_f_11_5392)">
<circle cx="28" cy="60" r="15" fill="#ADDDD0"/>
</g>
<g filter="url(#filter3_f_11_5392)">
<circle cx="38" cy="71" r="15" fill="#CEBCFA"/>
</g>
<g filter="url(#filter4_f_11_5392)">
<circle cx="54" cy="72" r="15" fill="#FEBBCC"/>
</g>
<g filter="url(#filter5_f_11_5392)">
<circle cx="66" cy="62" r="15" fill="#FE9993"/>
</g>
<g filter="url(#filter6_f_11_5392)">
<circle cx="69" cy="46" r="15" fill="#E9B384"/>
</g>
<g filter="url(#filter7_f_11_5392)">
<circle cx="61" cy="32" r="15" fill="#E2CEC7"/>
</g>
<g filter="url(#filter8_f_11_5392)">
<circle cx="46" cy="28" r="15" fill="#F1DD8E"/>
</g>
<g filter="url(#filter9_d_11_5392)">
<path fill-rule="evenodd" clip-rule="evenodd" d="M47 20C30.4315 20 17 33.4315 17 50C17 66.5685 30.4315 80 47 80C63.5685 80 77 66.5685 77 50C77 33.4315 63.5685 20 47 20ZM58.1324 61.446C58.2992 61.8034 58.5732 61.9821 58.9545 61.9821H59.6336C59.8957 62.0059 60.2054 62.0059 60.5628 61.9821C60.8964 61.9821 61.1109 61.8749 61.2062 61.6604C61.23 61.6366 61.2419 61.577 61.2419 61.4817C61.2657 61.2673 61.2062 60.9456 61.0632 60.5167L60.4199 58.551L59.9195 57.0141L58.7043 53.4758L58.5971 53.0826C58.5732 53.0112 58.5613 52.9039 58.5613 52.761C58.5613 52.4512 58.6686 52.201 58.883 52.0104C58.9545 51.9628 59.0141 51.9032 59.0617 51.8317C59.4191 51.5696 59.7527 51.2479 60.0625 50.8667C60.7058 50.0804 61.0632 49.175 61.1347 48.1504C61.1823 47.6977 61.2062 47.0186 61.2062 46.1132V44.9337C61.2062 44.3857 61.1942 43.9806 61.1704 43.7185C61.1228 43.0514 61.0632 42.551 60.9917 42.2174C60.7296 41.0022 60.1458 40.0253 59.2404 39.2867C58.2397 38.4765 57.0483 38.0476 55.6663 38H50.5554C50.4124 38 50.2933 38.0119 50.198 38.0357C49.8644 38.1072 49.6857 38.3097 49.6619 38.6433C49.638 38.7386 49.6261 38.8816 49.6261 39.0722V60.624C49.6261 60.8861 49.638 61.0767 49.6619 61.1958C49.6857 61.3864 49.7333 61.5294 49.8048 61.6247C49.9001 61.6962 50.0431 61.7558 50.2337 61.8034C50.2814 61.8272 50.3648 61.8391 50.4839 61.8391C50.7698 61.863 51.1987 61.8749 51.7706 61.8749C51.8897 61.8749 52.0208 61.8511 52.1637 61.8034C52.4735 61.7319 52.6403 61.577 52.6641 61.3388C52.7117 61.0052 52.7356 60.755 52.7356 60.5882V54.1549C52.7356 53.7975 52.8071 53.4996 52.95 53.2613C53.093 53.1422 53.2836 53.0469 53.5219 52.9754C53.5934 52.9516 53.7006 52.9397 53.8435 52.9397C54.1056 52.9397 54.3916 52.9992 54.7013 53.1184C55.2255 53.3566 55.5591 53.726 55.7021 54.2263C55.9403 54.9888 56.3216 56.1325 56.8458 57.6575C57.4176 59.3969 57.7869 60.5167 57.9537 61.0171C57.9776 61.1124 58.0371 61.2554 58.1324 61.446ZM51.3774 60.9814C51.4251 61.029 51.4608 61.0528 51.4846 61.0528C51.5323 60.9575 51.5561 60.8861 51.5561 60.8384L51.3417 60.5525C51.3893 60.5048 51.4132 60.4691 51.4132 60.4453C51.4132 60.2785 51.4251 60.1593 51.4489 60.0878L51.5561 59.9806L51.7348 59.9449V60.0878H51.9135C51.9135 60.2308 51.9731 60.3023 52.0922 60.3023L51.985 60.5882C51.9612 60.6359 51.9493 60.7193 51.9493 60.8384H51.8063C51.7825 60.8622 51.7706 60.9099 51.7706 60.9814L51.9493 61.0886C51.9731 61.0648 51.9969 61.0528 52.0208 61.0528C52.0684 61.0528 52.1041 61.0409 52.128 61.0171V61.3388C52.0803 61.3626 52.0446 61.3626 52.0208 61.3388C51.9969 61.2911 51.9612 61.2554 51.9135 61.2316C51.7706 61.303 51.6872 61.3507 51.6633 61.3745H51.5204C51.4966 61.3507 51.4608 61.3507 51.4132 61.3745L51.2345 61.4103C51.1868 61.3864 51.1749 61.3507 51.1987 61.303C51.2225 61.2316 51.2225 61.1839 51.1987 61.1601L51.163 60.9456C51.0677 60.9933 51.02 61.0648 51.02 61.1601C51.0438 61.2316 51.0558 61.2792 51.0558 61.303V61.3745C51.0081 61.2554 50.877 61.1362 50.6626 61.0171L50.4839 61.0886C50.4362 61.0648 50.4362 61.0171 50.4839 60.9456L50.3409 60.6954C50.5289 60.6485 50.6473 60.5436 50.6963 60.3808C50.6968 60.3805 50.6973 60.38 50.6976 60.3792C50.6981 60.3781 50.6983 60.3762 50.6983 60.3738L50.6963 60.3808C50.6896 60.3838 50.6665 60.3457 50.6269 60.2665L50.7698 59.9449C50.6745 59.8019 50.6269 59.6947 50.6269 59.6232C50.6269 59.5517 50.6388 59.4922 50.6626 59.4445L50.7698 59.4803V59.7304C50.8413 59.7543 50.9009 59.7304 50.9485 59.659C51.02 59.5398 51.0319 59.3969 50.9843 59.2301C50.9366 59.1348 50.9485 59.0752 51.02 59.0514L51.1272 59.2658C51.1749 59.242 51.2583 59.2301 51.3774 59.2301L51.5561 59.4445L51.842 59.2658L51.6276 59.0871C51.6514 59.0871 51.711 59.0633 51.8063 59.0156L52.0565 59.1228C52.0327 59.1943 52.0208 59.3015 52.0208 59.4445L51.9135 59.4088C51.8897 59.4564 51.9016 59.516 51.9493 59.5875C52.0208 59.6351 52.0565 59.6709 52.0565 59.6947C52.0088 59.7424 51.9493 59.7424 51.8778 59.6947C51.8063 59.647 51.7467 59.6232 51.6991 59.6232C51.6753 59.647 51.6633 59.6947 51.6633 59.7662C51.6395 59.79 51.6157 59.79 51.5919 59.7662L51.5561 59.6947L51.4489 59.6232C51.4251 59.6947 51.4132 59.7781 51.4132 59.8734C51.437 59.9687 51.4489 60.0402 51.4489 60.0878L51.163 60.0521L51.1272 60.0878V60.3023H51.02L50.8056 60.0521C50.8056 60.2904 50.7937 60.4453 50.7698 60.5167C50.9128 60.612 51.0081 60.6597 51.0558 60.6597C51.1511 60.6597 51.2464 60.6954 51.3417 60.7669L51.3774 60.9814ZM51.6276 59.0871C51.5561 59.0156 51.5204 58.968 51.5204 58.9441C51.5204 58.9203 51.5561 58.8727 51.6276 58.8012C51.6514 58.8488 51.6514 58.9084 51.6276 58.9799V59.0871ZM52.1637 60.0164L52.2709 60.1236L52.0922 60.2308H52.0565V60.1951L52.1637 60.0164ZM51.9493 58.4795C51.9731 58.5033 51.9969 58.5629 52.0208 58.6582C51.9016 58.5391 51.8301 58.4557 51.8063 58.408C51.8778 58.408 51.9254 58.4319 51.9493 58.4795ZM51.5561 57.5502C51.5561 57.6694 51.5442 57.7766 51.5204 57.8719C51.4727 57.8481 51.4132 57.8362 51.3417 57.8362L51.4846 57.5145L51.5561 57.5502ZM51.985 58.1578H52.128L52.3424 58.3723C52.2233 58.3485 52.1041 58.277 51.985 58.1578ZM52.0565 57.6217C51.985 57.6456 51.8778 57.7051 51.7348 57.8004C51.711 57.7051 51.711 57.6336 51.7348 57.586C51.7825 57.5145 51.8063 57.4669 51.8063 57.443H51.9135C51.9374 57.3477 52.0565 57.312 52.2709 57.3358L52.128 57.4073C52.1041 57.4311 52.0565 57.443 51.985 57.443H51.9493C51.9254 57.4669 51.9135 57.5026 51.9135 57.5502L52.0565 57.6217ZM57.0245 56.3351C57.096 56.2159 57.1913 56.204 57.3104 56.2993L57.1317 56.4423L57.0245 56.3351ZM59.026 50.3306C58.9307 50.2115 58.8473 50.2115 58.7758 50.3306H59.026ZM58.7043 49.58C58.6566 49.6992 58.5852 49.7468 58.4899 49.723C58.4899 49.6992 58.5137 49.6158 58.5613 49.4728L58.7043 49.58ZM58.7043 49.2226C58.7758 49.2703 58.8592 49.2703 58.9545 49.2226C58.8354 49.1511 58.752 49.1511 58.7043 49.2226ZM54.5226 49.9017C54.3082 49.9017 54.1295 49.9136 53.9865 49.9374C53.6768 49.9851 53.3789 49.9494 53.093 49.8302C52.8547 49.6873 52.7356 49.449 52.7356 49.1154V41.8957C52.7356 41.7766 52.7475 41.6813 52.7713 41.6098C52.8428 41.3001 53.0334 41.1452 53.3432 41.1452C53.6053 41.1452 53.8078 41.1333 53.9508 41.1094L54.5226 41.0737H54.6298C54.7013 41.0499 54.749 41.0499 54.7728 41.0737C54.8443 41.0975 54.9634 41.1094 55.1302 41.1094H55.4876C55.9165 41.1571 56.2144 41.2167 56.3811 41.2881C57.2627 41.5264 57.8108 42.0983 58.0252 43.0037L58.0967 43.647C58.1205 44.0759 58.1324 44.7074 58.1324 45.5413L58.0252 47.3641L57.9537 48.1861C57.7631 48.9486 57.3223 49.449 56.6313 49.6873C56.3216 49.8064 56.0237 49.866 55.7378 49.866H55.0945C54.9515 49.8898 54.7609 49.9017 54.5226 49.9017ZM52.4139 39.3939C52.3662 39.4177 52.3067 39.4415 52.2352 39.4654V39.2509H52.4496L52.5569 39.108L52.5926 39.3224C52.545 39.3462 52.4854 39.3701 52.4139 39.3939ZM54.2724 39.8943C54.2963 39.9181 54.3201 39.9657 54.3439 40.0372L54.1295 39.787H54.2367C54.2605 39.8109 54.2724 39.8466 54.2724 39.8943ZM53.6648 39.1794C53.7601 39.2033 53.7959 39.2867 53.7721 39.4296C53.6768 39.3343 53.6053 39.2747 53.5576 39.2509C53.6053 39.2033 53.641 39.1794 53.6648 39.1794ZM59.7408 44.4333C59.7884 44.4333 59.8718 44.4572 59.991 44.5048V44.6478C59.9671 44.624 59.9314 44.612 59.8837 44.612C59.8599 44.612 59.8361 44.6001 59.8123 44.5763L59.5263 44.5406C59.6217 44.4691 59.6931 44.4333 59.7408 44.4333ZM59.4549 44.1117C59.3596 44.1593 59.2881 44.1832 59.2404 44.1832C59.2404 44.1593 59.2285 44.1236 59.2047 44.0759V43.8615L59.4549 44.1117ZM55.3089 39.1437C55.4281 39.2152 55.4161 39.3224 55.2732 39.4654C55.2493 39.4177 55.2374 39.3462 55.2374 39.2509L55.3089 39.1437ZM60.1339 43.8615L60.0982 43.9687L59.8123 44.0045L59.6693 43.79C59.574 43.7424 59.5025 43.6947 59.4549 43.647L59.705 43.5398C59.705 43.516 59.7289 43.4803 59.7765 43.4326L59.9195 43.5398L59.8123 43.8257C59.8838 43.8496 59.991 43.8615 60.1339 43.8615ZM60.2769 44.0045L60.5986 44.1117L60.2769 44.1832V44.0045ZM59.5263 42.682C59.4549 42.7059 59.3715 42.7178 59.2762 42.7178C59.2762 42.5986 59.3238 42.5391 59.4191 42.5391L59.5263 42.682ZM59.3476 42.1459L59.4549 42.2174L59.026 42.5033C59.026 42.408 59.0379 42.3485 59.0617 42.3246C59.1094 42.277 59.2047 42.2174 59.3476 42.1459ZM57.9537 40.6448C57.9061 40.4542 57.8823 40.347 57.8823 40.3231C57.8823 40.4184 57.9061 40.5257 57.9537 40.6448ZM58.9902 41.1809C59.0855 41.2286 59.0975 41.2881 59.026 41.3596C58.9545 41.3358 58.9307 41.3001 58.9545 41.2524L58.9902 41.1809ZM58.5971 40.6448C58.5971 40.6686 58.6209 40.7044 58.6686 40.752L58.4541 40.8235C58.4541 40.752 58.5018 40.6925 58.5971 40.6448ZM32.4646 61.9106C32.6552 61.9583 32.8101 61.9821 32.9293 61.9821H34.073C34.2159 61.9821 34.4066 61.9583 34.6448 61.9106C34.8593 61.8868 35.0022 61.7558 35.0737 61.5175C35.1214 61.2792 35.1452 61.1005 35.1452 60.9814V54.2621C35.1452 54.1429 35.169 53.9404 35.2167 53.6545C35.2167 53.4877 35.312 53.3566 35.5026 53.2613C35.6456 53.2137 35.7528 53.1899 35.8243 53.1899C36.3485 53.1422 36.7416 53.1184 37.0037 53.1184C37.3135 53.1422 37.5756 53.1541 37.79 53.1541C38.0045 53.1303 38.1832 53.1184 38.3261 53.1184C39.0171 53.1184 39.72 52.9516 40.4348 52.618C40.9829 52.3797 41.5428 51.9747 42.1147 51.4028C42.7104 50.7833 43.1273 50.0685 43.3656 49.2584C43.5562 48.3529 43.6634 47.6858 43.6873 47.2569L43.723 46.3276V45.72C43.7468 45.4817 43.7468 45.2077 43.723 44.898L43.5086 43.0752C43.4371 42.5272 43.3179 42.0268 43.1512 41.5741C42.7461 40.5972 42.21 39.8466 41.5428 39.3224C40.5421 38.5361 39.3745 38.1429 38.0402 38.1429C36.9442 38.1191 35.2882 38.1072 33.0722 38.1072C32.9769 38.1072 32.834 38.131 32.6433 38.1787C32.3098 38.2263 32.1191 38.4289 32.0715 38.7863L32 39.7155V43.9687C32.0238 44.8027 32.0357 46.0655 32.0357 47.7572V51.5815C32.0596 52.4393 32.0715 53.7379 32.0715 55.4773C32.0715 57.1928 32.0477 58.4914 32 59.373V60.338L32.0715 61.2673C32.0715 61.3388 32.0953 61.446 32.143 61.589C32.1906 61.7558 32.2978 61.863 32.4646 61.9106ZM33.108 59.4445C33.1794 59.516 33.1794 59.6113 33.108 59.7304C33.108 59.7066 33.0841 59.6709 33.0365 59.6232C33.0127 59.5517 33.0365 59.4922 33.108 59.4445ZM32.7506 58.7654C32.7744 58.7416 32.822 58.7297 32.8935 58.7297L32.7506 58.9084C32.7267 58.8131 32.7267 58.7654 32.7506 58.7654ZM33.0365 58.3723C33.1794 58.4438 33.2509 58.5153 33.2509 58.5867V58.9799C33.1794 58.9799 33.1437 58.9561 33.1437 58.9084L33.0722 58.551L32.8578 58.4438C32.7863 58.4438 32.7029 58.4676 32.6076 58.5153C32.5838 58.3961 32.6076 58.3127 32.6791 58.2651L32.822 58.1221C32.8459 58.2174 32.9173 58.3008 33.0365 58.3723ZM34.2517 59.0871L34.1802 59.3015L34.073 59.2301C34.073 59.1109 34.0849 59.0275 34.1087 58.9799L34.1445 58.9441L34.2517 59.0871ZM33.108 57.7647L33.2867 58.0149L33.2509 58.1221C33.1794 58.0744 33.0722 58.0268 32.9293 57.9791C32.8816 57.8838 32.8578 57.7885 32.8578 57.6932L33.108 57.7647ZM33.3939 58.1221L33.5726 58.2293L33.4654 58.4438L33.3224 58.3365L33.3939 58.1221ZM33.1794 56.8712C33.2271 56.9426 33.2033 56.9784 33.108 56.9784L32.965 56.9069V56.8354C33.0127 56.8593 33.0841 56.8712 33.1794 56.8712ZM33.5369 57.0141H33.6441L33.787 57.3001L33.5369 57.2643V57.0141ZM33.4654 56.8712H33.3582L33.3939 56.6925L33.5369 56.7639C33.5369 56.8116 33.513 56.8473 33.4654 56.8712ZM34.3946 57.5502C34.4661 57.5502 34.5138 57.5622 34.5376 57.586L34.2159 57.6932L33.8943 57.443C33.8943 57.3715 33.9181 57.3239 33.9657 57.3001L34.073 57.1928C34.1206 57.169 34.1445 57.1452 34.1445 57.1214C34.1683 57.0737 34.1921 57.038 34.2159 57.0141C34.3112 57.038 34.3827 57.1333 34.4304 57.3001L34.3232 57.4073C34.3232 57.4788 34.347 57.5264 34.3946 57.5502ZM33.108 56.5495C33.0603 56.6448 33.0127 56.7163 32.965 56.7639L32.7863 56.6567L33.1437 56.4065C33.1437 56.478 33.1318 56.5257 33.108 56.5495ZM33.2867 56.3351L33.1437 56.4065L33.0722 56.2278C33.0049 56.1156 32.9904 56.014 33.0288 55.923L33.1794 56.0134L33.2867 56.3351ZM33.2867 56.3351L33.3582 56.478L33.6798 56.3708C33.799 56.4899 33.93 56.5495 34.073 56.5495L34.0372 56.3708L33.7156 56.1921C33.5726 56.1921 33.4654 56.204 33.3939 56.2278L33.2867 56.3351ZM33.0007 55.9062V55.8704C33.0007 55.8228 33.0127 55.7751 33.0365 55.7275C33.0841 55.6798 33.108 55.6322 33.108 55.5845L33.0722 55.513L32.9293 55.5488C32.9293 55.5249 32.9054 55.4654 32.8578 55.3701H33.1794L33.0365 55.1556C32.8459 55.2747 32.7029 55.4058 32.6076 55.5488C32.6552 55.5488 32.7267 55.5726 32.822 55.6202C32.7744 55.7632 32.7267 55.93 32.6791 56.1206H32.7148L32.822 55.9062H33.0007ZM34.6448 56.8712L34.5733 57.0499H34.4661L34.3232 56.8712C34.2755 56.8235 34.2278 56.7163 34.1802 56.5495H34.3232L34.4661 56.8354C34.4899 56.8593 34.5495 56.8712 34.6448 56.8712ZM33.8228 55.9419C33.8466 55.9181 33.8585 55.9181 33.8585 55.9419L34.073 56.1563C34.0253 56.1802 33.9657 56.1802 33.8943 56.1563C33.8466 56.1325 33.8109 56.1087 33.787 56.0849C33.8109 56.0372 33.8228 55.9776 33.8228 55.9062V55.9419ZM34.3946 56.4423C34.3708 56.4423 34.347 56.4542 34.3232 56.478L34.2874 56.4065C34.3351 56.3589 34.347 56.2993 34.3232 56.2278V56.0491L34.3946 55.9419L34.5733 56.0491C34.5257 56.1921 34.5019 56.3112 34.5019 56.4065C34.478 56.4304 34.4423 56.4423 34.3946 56.4423ZM32.8935 54.405C32.965 54.3574 33.0246 54.3931 33.0722 54.5123C33.0007 54.5838 32.9293 54.5957 32.8578 54.548L32.8935 54.405ZM33.3224 54.4408L33.5369 54.5123L33.2509 54.7267C33.2033 54.6552 33.2033 54.5957 33.2509 54.548C33.2986 54.5004 33.3224 54.4646 33.3224 54.4408ZM34.3946 54.9769L34.3232 55.4058H34.2517C34.2278 55.3581 34.2159 55.3224 34.2159 55.2986C34.2398 55.2509 34.2517 55.2033 34.2517 55.1556L34.2159 55.0126C34.2636 54.9888 34.3232 54.9769 34.3946 54.9769ZM33.1437 41.2524C33.1675 41.2762 33.1794 41.3001 33.1794 41.3239H32.9293C32.9531 41.2048 33.0246 41.169 33.1437 41.2167V41.2524ZM39.72 49.4371C39.2911 49.7945 38.7908 49.9732 38.2189 49.9732L35.8243 50.0089C35.4192 50.0089 35.1929 49.8064 35.1452 49.4013V42.4319C35.1452 42.1936 35.1571 42.003 35.1809 41.86C35.2048 41.6694 35.2643 41.5383 35.3596 41.4669C35.455 41.3715 35.5979 41.3001 35.7885 41.2524H36.0387H36.8965C37.2301 41.2286 37.6232 41.2286 38.076 41.2524C38.9576 41.3001 39.6247 41.6694 40.0774 42.3604C40.2919 42.694 40.3991 43.1228 40.3991 43.647C40.4229 44.0283 40.4348 44.5882 40.4348 45.3269L40.4706 45.6128V45.72C40.4944 45.7438 40.4944 45.7796 40.4706 45.8272C40.4468 45.8987 40.4348 46.0298 40.4348 46.2204V46.8637C40.4348 47.4832 40.411 47.9479 40.3634 48.2576C40.2919 48.7103 40.0774 49.1035 39.72 49.4371ZM33.4654 41.038C33.4177 41.0141 33.3701 41.0022 33.3224 41.0022L33.1794 41.0737L33.1437 41.038L33.2509 40.752L33.3939 40.8593L33.5369 40.7878L33.6441 41.0022C33.5964 41.0499 33.5369 41.0618 33.4654 41.038ZM32.965 40.5733C32.9888 40.6448 32.965 40.6805 32.8935 40.6805H32.8578V40.6448C32.8578 40.5257 32.8935 40.3946 32.965 40.2517C33.0841 40.2517 33.1437 40.2636 33.1437 40.2874L33.2509 40.3946H33.3582L33.4654 40.5376V40.6091L33.2509 40.5733L33.108 40.6091C33.0603 40.5614 33.0365 40.5138 33.0365 40.4661C32.9888 40.4661 32.965 40.5018 32.965 40.5733ZM33.8228 40.4661C33.8704 40.5138 33.9062 40.5614 33.93 40.6091C33.787 40.5852 33.7036 40.5257 33.6798 40.4304C33.656 40.3351 33.6322 40.2636 33.6083 40.2159L33.6441 40.1087C33.6917 40.0849 33.7513 40.073 33.8228 40.073C33.8466 40.0491 33.8943 40.0372 33.9657 40.0372C33.9657 40.1325 33.9538 40.1921 33.93 40.2159L33.787 40.2874C33.7632 40.3351 33.7751 40.3946 33.8228 40.4661ZM33.5011 39.7513C33.5488 39.7275 33.6203 39.7155 33.7156 39.7155L33.6083 39.93L33.5011 39.7513ZM34.2517 39.7513C34.204 39.7989 34.1325 39.7989 34.0372 39.7513C34.0372 39.7036 34.0611 39.656 34.1087 39.6083C34.1802 39.5607 34.2159 39.5249 34.2159 39.5011L34.1802 39.4296L34.3589 39.3939C34.3589 39.513 34.347 39.5964 34.3232 39.6441L34.2517 39.7513ZM34.8593 39.8585C34.8593 39.8823 34.8474 39.8823 34.8235 39.8585C34.6806 39.8585 34.5853 39.8109 34.5376 39.7155L34.7878 39.6083L34.9308 39.8228C34.9069 39.8228 34.8831 39.8347 34.8593 39.8585ZM35.2524 39.9657C35.3001 39.9419 35.3596 39.9419 35.4311 39.9657L35.3239 40.1087L35.1809 40.073V40.0015C35.2048 39.9776 35.2286 39.9657 35.2524 39.9657ZM42.0432 45.1482L41.9717 45.2196C41.8764 45.1243 41.8526 45.0171 41.9002 44.898C41.9955 44.9456 42.0432 45.029 42.0432 45.1482ZM37.5041 40.3946C37.4564 40.3946 37.373 40.4304 37.2539 40.5018C37.2777 40.3827 37.3135 40.2993 37.3611 40.2517C37.3611 40.2278 37.3492 40.204 37.3254 40.1802C37.3254 40.1325 37.3611 40.0968 37.4326 40.073C37.4326 40.1444 37.4564 40.2517 37.5041 40.3946ZM41.6143 43.2182L41.793 43.4683H41.6143V43.2182ZM38.6835 40.073C38.4929 40.1206 38.35 40.1444 38.2547 40.1444H38.1117L38.2547 39.9657C38.2785 39.9896 38.3261 40.0015 38.3976 40.0015L38.6478 39.8228L38.6835 40.073ZM38.6835 39.787C38.6597 39.787 38.6478 39.7989 38.6478 39.8228L38.5406 39.4296C38.4691 39.4058 38.3976 39.4415 38.3261 39.5368C38.2785 39.6322 38.2308 39.6798 38.1832 39.6798C38.207 39.5607 38.2427 39.4654 38.2904 39.3939C38.338 39.2986 38.4214 39.1794 38.5406 39.0365C38.6121 39.0365 38.6597 39.0484 38.6835 39.0722L38.755 39.108L38.7193 39.2509L38.6835 39.3224L38.7193 39.787H38.6835ZM42.1504 42.9322L42.0074 43.1824H41.6143C41.5428 43.0871 41.5309 42.968 41.5786 42.825C41.6739 42.8727 41.7573 42.8965 41.8287 42.8965C41.9002 42.9203 42.0074 42.9322 42.1504 42.9322ZM39.8987 40.752L40.0774 40.8593L39.8987 41.038C39.8511 40.9903 39.8392 40.9426 39.863 40.895C39.8868 40.8473 39.8987 40.7997 39.8987 40.752ZM41.65 42.5033C41.6739 42.5033 41.7334 42.5272 41.8287 42.5748L41.793 42.6463L41.5428 42.5748C41.519 42.551 41.519 42.5272 41.5428 42.5033C41.5905 42.4795 41.6262 42.4795 41.65 42.5033ZM39.3984 40.1087C39.3031 40.1564 39.2316 40.204 39.1839 40.2517L38.9337 40.1444C38.9576 40.0968 38.9695 40.0015 38.9695 39.8585L38.898 39.7155L39.2197 39.6083C39.2911 39.7036 39.3745 39.787 39.4698 39.8585C39.4222 39.9538 39.3984 40.0372 39.3984 40.1087ZM41.5786 42.3246C41.6024 42.3246 41.6381 42.3008 41.6858 42.2531L41.936 42.3604C41.7692 42.408 41.65 42.3961 41.5786 42.3246ZM41.5786 42.3246C41.5547 42.3246 41.5071 42.3127 41.4356 42.2889C41.3879 42.2651 41.3403 42.2293 41.2926 42.1817L41.3641 42.1102C41.4118 42.134 41.4475 42.1698 41.4713 42.2174L41.5786 42.3246ZM41.1497 41.6456L41.2211 41.717L41.0782 41.8243C41.0782 41.8004 41.0663 41.7885 41.0424 41.7885L41.1497 41.6456ZM39.2911 40.5376C39.2911 40.6329 39.2316 40.7044 39.1124 40.752L38.9695 40.6805C38.9933 40.6567 39.0052 40.621 39.0052 40.5733C39.1243 40.5733 39.2197 40.5614 39.2911 40.5376ZM39.5056 40.6448L39.2911 40.5376L39.2554 40.5018C39.2554 40.4542 39.2792 40.4184 39.3269 40.3946L39.3626 40.2517H39.6128L39.72 40.0015L39.9345 39.8943C40.006 39.8943 40.0894 39.9181 40.1847 39.9657L40.2919 39.8943V40.073C40.2442 40.1206 40.1847 40.1444 40.1132 40.1444C40.0417 40.1206 39.994 40.1087 39.9702 40.1087L39.8987 40.3231L39.6843 40.3589L39.5056 40.6448ZM40.2919 39.8943C40.2681 39.7989 40.3276 39.7036 40.4706 39.6083L40.7208 39.8585C40.6731 39.8823 40.6255 39.8943 40.5778 39.8943C40.5302 39.8704 40.4944 39.8585 40.4706 39.8585C40.4468 39.8347 40.411 39.8347 40.3634 39.8585C40.3395 39.8823 40.3157 39.8943 40.2919 39.8943ZM39.1124 39.3224L39.041 39.4654H38.898V39.3939L39.1124 39.1437L39.3269 39.3224C39.3031 39.3462 39.2673 39.3581 39.2197 39.3581C39.172 39.3343 39.1363 39.3224 39.1124 39.3224ZM40.5778 40.7163C40.6493 40.7163 40.7327 40.7639 40.828 40.8593L40.685 40.9665L40.4706 40.752C40.4944 40.7282 40.5302 40.7163 40.5778 40.7163ZM41.3641 40.9307L41.4356 41.0022V41.6456C41.3879 41.5979 41.3522 41.5502 41.3284 41.5026C41.3045 41.4311 41.2688 41.3835 41.2211 41.3596L41.1497 41.3954L41.0067 41.4311L40.7923 41.2167L40.9352 41.1809L41.0782 41.2881L41.1854 41.0022C41.2092 40.9784 41.2331 40.9665 41.2569 40.9665C41.3045 40.9665 41.3403 40.9546 41.3641 40.9307ZM42.8295 43.1467C42.7818 43.2182 42.7223 43.2539 42.6508 43.2539H42.5793C42.5793 43.1824 42.6031 43.1228 42.6508 43.0752C42.7223 43.0275 42.7699 42.9799 42.7937 42.9322L42.6508 42.6106C42.7223 42.5867 42.7699 42.5986 42.7937 42.6463C42.8414 42.694 42.8771 42.7059 42.901 42.682L43.0082 43.0037C42.9605 43.0275 42.901 43.0752 42.8295 43.1467ZM40.1489 40.4304L40.3276 40.2517V40.4661C40.2561 40.4661 40.1966 40.4542 40.1489 40.4304ZM42.2219 41.4669C42.2219 41.6813 42.2815 41.8838 42.4006 42.0744C42.3529 42.0983 42.3053 42.0983 42.2576 42.0744C42.21 42.0268 42.1623 42.003 42.1147 42.003L41.936 42.0387L41.9002 42.003C41.9479 41.9791 41.9836 41.9315 42.0074 41.86C42.0313 41.7885 42.0432 41.7409 42.0432 41.717V41.5741C42.067 41.5026 42.1266 41.4669 42.2219 41.4669ZM40.1847 39.2867V39.4296L40.1132 39.4654L39.9345 39.3581L40.006 39.2867C40.0536 39.239 40.1132 39.239 40.1847 39.2867ZM41.5428 40.5376C41.5428 40.5852 41.5309 40.621 41.5071 40.6448L41.1854 40.6091L41.0782 40.3589L41.2569 40.3231L41.5428 40.5376Z" fill="white"/>
</g>
<defs>
<filter id="filter0_f_11_5392" x="9" y="7" width="50" height="50" filterUnits="userSpaceOnUse" color-interpolation-filters="sRGB">
<feFlood flood-opacity="0" result="BackgroundImageFix"/>
<feBlend mode="normal" in="SourceGraphic" in2="BackgroundImageFix" result="shape"/>
<feGaussianBlur stdDeviation="5" result="effect1_foregroundBlur_11_5392"/>
</filter>
<filter id="filter1_f_11_5392" x="0" y="22" width="50" height="50" filterUnits="userSpaceOnUse" color-interpolation-filters="sRGB">
<feFlood flood-opacity="0" result="BackgroundImageFix"/>
<feBlend mode="normal" in="SourceGraphic" in2="BackgroundImageFix" result="shape"/>
<feGaussianBlur stdDeviation="5" result="effect1_foregroundBlur_11_5392"/>
</filter>
<filter id="filter2_f_11_5392" x="3" y="35" width="50" height="50" filterUnits="userSpaceOnUse" color-interpolation-filters="sRGB">
<feFlood flood-opacity="0" result="BackgroundImageFix"/>
<feBlend mode="normal" in="SourceGraphic" in2="BackgroundImageFix" result="shape"/>
<feGaussianBlur stdDeviation="5" result="effect1_foregroundBlur_11_5392"/>
</filter>
<filter id="filter3_f_11_5392" x="13" y="46" width="50" height="50" filterUnits="userSpaceOnUse" color-interpolation-filters="sRGB">
<feFlood flood-opacity="0" result="BackgroundImageFix"/>
<feBlend mode="normal" in="SourceGraphic" in2="BackgroundImageFix" result="shape"/>
<feGaussianBlur stdDeviation="5" result="effect1_foregroundBlur_11_5392"/>
</filter>
<filter id="filter4_f_11_5392" x="29" y="47" width="50" height="50" filterUnits="userSpaceOnUse" color-interpolation-filters="sRGB">
<feFlood flood-opacity="0" result="BackgroundImageFix"/>
<feBlend mode="normal" in="SourceGraphic" in2="BackgroundImageFix" result="shape"/>
<feGaussianBlur stdDeviation="5" result="effect1_foregroundBlur_11_5392"/>
</filter>
<filter id="filter5_f_11_5392" x="41" y="37" width="50" height="50" filterUnits="userSpaceOnUse" color-interpolation-filters="sRGB">
<feFlood flood-opacity="0" result="BackgroundImageFix"/>
<feBlend mode="normal" in="SourceGraphic" in2="BackgroundImageFix" result="shape"/>
<feGaussianBlur stdDeviation="5" result="effect1_foregroundBlur_11_5392"/>
</filter>
<filter id="filter6_f_11_5392" x="44" y="21" width="50" height="50" filterUnits="userSpaceOnUse" color-interpolation-filters="sRGB">
<feFlood flood-opacity="0" result="BackgroundImageFix"/>
<feBlend mode="normal" in="SourceGraphic" in2="BackgroundImageFix" result="shape"/>
<feGaussianBlur stdDeviation="5" result="effect1_foregroundBlur_11_5392"/>
</filter>
<filter id="filter7_f_11_5392" x="36" y="7" width="50" height="50" filterUnits="userSpaceOnUse" color-interpolation-filters="sRGB">
<feFlood flood-opacity="0" result="BackgroundImageFix"/>
<feBlend mode="normal" in="SourceGraphic" in2="BackgroundImageFix" result="shape"/>
<feGaussianBlur stdDeviation="5" result="effect1_foregroundBlur_11_5392"/>
</filter>
<filter id="filter8_f_11_5392" x="21" y="3" width="50" height="50" filterUnits="userSpaceOnUse" color-interpolation-filters="sRGB">
<feFlood flood-opacity="0" result="BackgroundImageFix"/>
<feBlend mode="normal" in="SourceGraphic" in2="BackgroundImageFix" result="shape"/>
<feGaussianBlur stdDeviation="5" result="effect1_foregroundBlur_11_5392"/>
</filter>
<filter id="filter9_d_11_5392" x="7" y="0" width="100" height="100" filterUnits="userSpaceOnUse" color-interpolation-filters="sRGB">
<feFlood flood-opacity="0" result="BackgroundImageFix"/>
<feColorMatrix in="SourceAlpha" type="matrix" values="0 0 0 0 0 0 0 0 0 0 0 0 0 0 0 0 0 0 127 0" result="hardAlpha"/>
<feOffset dx="10"/>
<feGaussianBlur stdDeviation="10"/>
<feComposite in2="hardAlpha" operator="out"/>
<feColorMatrix type="matrix" values="0 0 0 0 0 0 0 0 0 0 0 0 0 0 0 0 0 0 0.2 0"/>
<feBlend mode="normal" in2="BackgroundImageFix" result="effect1_dropShadow_11_5392"/>
<feBlend mode="normal" in="SourceGraphic" in2="effect1_dropShadow_11_5392" result="shape"/>
</filter>
</defs>
</svg>
