<svg width="149" height="140" viewBox="0 0 149 140" fill="none" xmlns="http://www.w3.org/2000/svg">
<g filter="url(#filter0_f_3253_15844)">
<circle cx="48.9191" cy="40.8109" r="24.3243" fill="#96D6FF"/>
</g>
<g filter="url(#filter1_f_3253_15844)">
<circle cx="34.3243" cy="65.1351" r="24.3243" fill="#B9F4FD"/>
</g>
<g filter="url(#filter2_f_3253_15844)">
<circle cx="39.1893" cy="86.2163" r="24.3243" fill="#ADDDD0"/>
</g>
<g filter="url(#filter3_f_3253_15844)">
<circle cx="55.4054" cy="104.054" r="24.3243" fill="#CEBCFA"/>
</g>
<g filter="url(#filter4_f_3253_15844)">
<circle cx="81.3512" cy="105.676" r="24.3243" fill="#FEBBCC"/>
</g>
<g filter="url(#filter5_f_3253_15844)">
<circle cx="100.811" cy="89.4595" r="24.3243" fill="#FE9993"/>
</g>
<g filter="url(#filter6_f_3253_15844)">
<circle cx="105.676" cy="63.5135" r="24.3243" fill="#E9B384"/>
</g>
<g filter="url(#filter7_f_3253_15844)">
<circle cx="92.7027" cy="40.8109" r="24.3243" fill="#E2CEC7"/>
</g>
<g filter="url(#filter8_f_3253_15844)">
<circle cx="68.3785" cy="34.3243" r="24.3243" fill="#F1DD8E"/>
</g>
<g filter="url(#filter9_d_3253_15844)">
<path fill-rule="evenodd" clip-rule="evenodd" d="M70 21.3514C43.1321 21.3514 21.3513 43.1322 21.3513 70.0001C21.3513 96.868 43.1321 118.649 70 118.649C96.8679 118.649 118.649 96.868 118.649 70.0001C118.649 43.1322 96.8679 21.3514 70 21.3514ZM88.0526 88.5611C88.3231 89.1407 88.7674 89.4305 89.3856 89.4305H90.4868C90.9119 89.4691 91.4142 89.4691 91.9937 89.4305C92.5347 89.4305 92.8824 89.2566 93.037 88.9088C93.0756 88.8702 93.0949 88.7736 93.0949 88.619C93.1336 88.2713 93.037 87.7497 92.8052 87.0542L91.7619 83.8665L90.9505 81.3743L88.9799 75.6364L88.806 74.9989C88.7674 74.883 88.7481 74.7091 88.7481 74.4772C88.7481 73.9749 88.922 73.5692 89.2697 73.2601C89.3856 73.1828 89.4822 73.0863 89.5595 72.9703C90.1391 72.5453 90.68 72.0237 91.1823 71.4055C92.2256 70.1304 92.8052 68.6621 92.9211 67.0006C92.9984 66.2665 93.037 65.1653 93.037 63.697V61.7844C93.037 60.8957 93.0177 60.2388 92.979 59.8138C92.9018 58.7319 92.8052 57.9205 92.6892 57.3796C92.2642 55.409 91.3176 53.8248 89.8493 52.627C88.2265 51.3133 86.2945 50.6178 84.0535 50.5405H75.7655C75.5336 50.5405 75.3404 50.5598 75.1859 50.5985C74.6449 50.7144 74.3551 51.0428 74.3165 51.5838C74.2779 51.7383 74.2585 51.9701 74.2585 52.2793V87.228C74.2585 87.6531 74.2779 87.9622 74.3165 88.1554C74.3551 88.4645 74.4324 88.6963 74.5483 88.8509C74.7029 88.9668 74.9347 89.0634 75.2438 89.1407C75.3211 89.1793 75.4563 89.1986 75.6495 89.1986C76.1132 89.2373 76.8087 89.2566 77.736 89.2566C77.9292 89.2566 78.1417 89.2179 78.3736 89.1407C78.8759 89.0247 79.1463 88.7736 79.185 88.3872C79.2623 87.8463 79.3009 87.4406 79.3009 87.1701V76.7376C79.3009 76.158 79.4168 75.675 79.6487 75.2887C79.8805 75.0955 80.1896 74.9409 80.576 74.825C80.6919 74.7864 80.8658 74.767 81.0976 74.767C81.5226 74.767 81.9863 74.8636 82.4886 75.0568C83.3387 75.4432 83.8796 76.0421 84.1114 76.8535C84.4978 78.09 85.116 79.9446 85.9661 82.4175C86.8934 85.2381 87.4923 87.0542 87.7628 87.8656C87.8014 88.0201 87.898 88.252 88.0526 88.5611ZM77.0985 87.8076C77.1758 87.8849 77.2337 87.9235 77.2724 87.9235C77.3496 87.769 77.3883 87.6531 77.3883 87.5758L77.0405 87.1121C77.1178 87.0349 77.1564 86.9769 77.1564 86.9383C77.1564 86.6678 77.1758 86.4746 77.2144 86.3587L77.3883 86.1848L77.6781 86.1268V86.3587H77.9679C77.9679 86.5905 78.0645 86.7064 78.2577 86.7064L78.0838 87.1701C78.0451 87.2474 78.0258 87.3826 78.0258 87.5758H77.794C77.7553 87.6144 77.736 87.6917 77.736 87.8076L78.0258 87.9815C78.0645 87.9429 78.1031 87.9235 78.1417 87.9235C78.219 87.9235 78.277 87.9042 78.3156 87.8656V88.3872C78.2383 88.4258 78.1804 88.4258 78.1417 88.3872C78.1031 88.3099 78.0451 88.252 77.9679 88.2133C77.736 88.3293 77.6008 88.4065 77.5622 88.4452H77.3303C77.2917 88.4065 77.2337 88.4065 77.1564 88.4452L76.8667 88.5031C76.7894 88.4645 76.7701 88.4065 76.8087 88.3292C76.8473 88.2133 76.8473 88.1361 76.8087 88.0974L76.7507 87.7497C76.5962 87.827 76.5189 87.9429 76.5189 88.0974C76.5575 88.2133 76.5769 88.2906 76.5769 88.3292V88.4452C76.4996 88.252 76.2871 88.0588 75.9393 87.8656L75.6495 87.9815C75.5723 87.9429 75.5723 87.8656 75.6495 87.7497L75.4177 87.344C75.7225 87.2678 75.9146 87.0977 75.994 86.8337C75.9962 86.8326 75.9973 86.8289 75.9973 86.8223L75.994 86.8337C75.9831 86.8386 75.9456 86.7769 75.8814 86.6485L76.1132 86.1268C75.9586 85.895 75.8814 85.7211 75.8814 85.6052C75.8814 85.4893 75.9007 85.3927 75.9393 85.3154L76.1132 85.3734V85.7791C76.2291 85.8177 76.3257 85.7791 76.403 85.6632C76.5189 85.47 76.5382 85.2381 76.4609 84.9677C76.3837 84.8131 76.403 84.7165 76.5189 84.6779L76.6928 85.0256C76.7701 84.987 76.9053 84.9677 77.0985 84.9677L77.3883 85.3154L77.8519 85.0256L77.5042 84.7358C77.5428 84.7358 77.6394 84.6972 77.794 84.6199L78.1997 84.7938C78.1611 84.9097 78.1417 85.0836 78.1417 85.3154L77.9679 85.2575C77.9292 85.3347 77.9485 85.4313 78.0258 85.5473C78.1417 85.6245 78.1997 85.6825 78.1997 85.7211C78.1224 85.7984 78.0258 85.7984 77.9099 85.7211C77.794 85.6439 77.6974 85.6052 77.6201 85.6052C77.5815 85.6439 77.5622 85.7211 77.5622 85.8371C77.5235 85.8757 77.4849 85.8757 77.4462 85.8371L77.3883 85.7211L77.2144 85.6052C77.1758 85.7211 77.1564 85.8564 77.1564 86.0109C77.1951 86.1655 77.2144 86.2814 77.2144 86.3587L76.7507 86.3007L76.6928 86.3587V86.7064H76.5189L76.1712 86.3007C76.1712 86.6871 76.1518 86.9383 76.1132 87.0542C76.345 87.2087 76.4996 87.286 76.5769 87.286C76.7314 87.286 76.886 87.344 77.0405 87.4599L77.0985 87.8076ZM77.5042 84.7358C77.3883 84.6199 77.3303 84.5426 77.3303 84.504C77.3303 84.4654 77.3883 84.3881 77.5042 84.2722C77.5428 84.3495 77.5428 84.4461 77.5042 84.562V84.7358ZM78.3736 86.2428L78.5474 86.4166L78.2577 86.5905H78.1997V86.5325L78.3736 86.2428ZM78.0258 83.7506C78.0645 83.7892 78.1031 83.8858 78.1417 84.0403C77.9485 83.8472 77.8326 83.7119 77.794 83.6346C77.9099 83.6346 77.9872 83.6733 78.0258 83.7506ZM77.3883 82.2436C77.3883 82.4368 77.369 82.6107 77.3303 82.7653C77.253 82.7266 77.1564 82.7073 77.0405 82.7073L77.2724 82.1857L77.3883 82.2436ZM78.0838 83.2289H78.3156L78.6634 83.5767C78.4702 83.538 78.277 83.4221 78.0838 83.2289ZM78.1997 82.3596C78.0838 82.3982 77.9099 82.4948 77.6781 82.6493C77.6394 82.4948 77.6394 82.3789 77.6781 82.3016C77.7553 82.1857 77.794 82.1084 77.794 82.0698H77.9679C78.0065 81.9152 78.1997 81.8573 78.5474 81.8959L78.3156 82.0118C78.277 82.0504 78.1997 82.0698 78.0838 82.0698H78.0258C77.9872 82.1084 77.9679 82.1664 77.9679 82.2436L78.1997 82.3596ZM86.2559 80.2731C86.3718 80.0799 86.5264 80.0606 86.7195 80.2151L86.4298 80.4469L86.2559 80.2731ZM89.5015 70.5361C89.347 70.3429 89.2118 70.3429 89.0958 70.5361H89.5015ZM88.9799 69.319C88.9026 69.5122 88.7867 69.5894 88.6322 69.5508C88.6322 69.5122 88.6708 69.3769 88.7481 69.1451L88.9799 69.319ZM88.9799 68.7394C89.0958 68.8167 89.2311 68.8167 89.3856 68.7394C89.1924 68.6235 89.0572 68.6235 88.9799 68.7394ZM82.1988 69.8406C81.8511 69.8406 81.5613 69.8599 81.3294 69.8985C80.8271 69.9758 80.3441 69.9179 79.8805 69.7247C79.4941 69.4928 79.3009 69.1065 79.3009 68.5655V56.858C79.3009 56.6648 79.3202 56.5102 79.3589 56.3943C79.4748 55.892 79.7839 55.6408 80.2862 55.6408C80.7112 55.6408 81.0396 55.6215 81.2715 55.5829L82.1988 55.5249H82.3727C82.4886 55.4863 82.5659 55.4863 82.6045 55.5249C82.7204 55.5636 82.9136 55.5829 83.1841 55.5829H83.7637C84.4592 55.6602 84.9422 55.7568 85.2126 55.8727C86.6423 56.2591 87.531 57.1864 87.8787 58.6547L87.9946 59.6979C88.0333 60.3934 88.0526 61.4173 88.0526 62.7697L87.8787 65.7256L87.7628 67.0586C87.4537 68.295 86.7389 69.1065 85.6183 69.4928C85.116 69.686 84.6331 69.7826 84.1694 69.7826H83.1261C82.8943 69.8213 82.5852 69.8406 82.1988 69.8406ZM78.7793 52.8009C78.702 52.8395 78.6054 52.8782 78.4895 52.9168V52.569H78.8372L79.0111 52.3372L79.0691 52.685C78.9918 52.7236 78.8952 52.7622 78.7793 52.8009ZM81.7931 53.6123C81.8317 53.6509 81.8704 53.7282 81.909 53.8441L81.5613 53.4384H81.7351C81.7738 53.4771 81.7931 53.535 81.7931 53.6123ZM80.8078 52.4531C80.9624 52.4918 81.0203 52.627 80.9817 52.8588C80.8271 52.7043 80.7112 52.6077 80.6339 52.569C80.7112 52.4918 80.7692 52.4531 80.8078 52.4531ZM90.6607 60.973C90.738 60.973 90.8732 61.0116 91.0664 61.0889V61.3207C91.0278 61.2821 90.9698 61.2628 90.8925 61.2628C90.8539 61.2628 90.8153 61.2435 90.7766 61.2048L90.313 61.1469C90.4675 61.0309 90.5834 60.973 90.6607 60.973ZM90.197 60.4514C90.0425 60.5286 89.9266 60.5673 89.8493 60.5673C89.8493 60.5286 89.83 60.4707 89.7913 60.3934V60.0457L90.197 60.4514ZM83.4739 52.3952C83.6671 52.5111 83.6478 52.685 83.4159 52.9168C83.3773 52.8395 83.358 52.7236 83.358 52.569L83.4739 52.3952ZM91.2982 60.0457L91.2403 60.2195L90.7766 60.2775L90.5448 59.9297C90.3902 59.8525 90.2743 59.7752 90.197 59.6979L90.6027 59.524C90.6027 59.4854 90.6414 59.4274 90.7187 59.3502L90.9505 59.524L90.7766 59.9877C90.8925 60.0263 91.0664 60.0457 91.2982 60.0457ZM91.5301 60.2775L92.0517 60.4514L91.5301 60.5673V60.2775ZM90.313 58.133C90.197 58.1717 90.0618 58.191 89.9072 58.191C89.9072 57.9978 89.9845 57.9012 90.1391 57.9012L90.313 58.133ZM90.0232 57.2637L90.197 57.3796L89.5015 57.8432C89.5015 57.6887 89.5209 57.5921 89.5595 57.5535C89.6368 57.4762 89.7913 57.3796 90.0232 57.2637ZM87.7628 54.8294C87.6855 54.5203 87.6469 54.3464 87.6469 54.3078C87.6469 54.4624 87.6855 54.6362 87.7628 54.8294ZM89.4436 55.6988C89.5981 55.7761 89.6175 55.8727 89.5015 55.9886C89.3856 55.9499 89.347 55.892 89.3856 55.8147L89.4436 55.6988ZM88.806 54.8294C88.806 54.8681 88.8447 54.926 88.922 55.0033L88.5742 55.1192C88.5742 55.0033 88.6515 54.9067 88.806 54.8294ZM46.4291 89.3145C46.7382 89.3918 46.9894 89.4305 47.1826 89.4305H49.0372C49.2691 89.4305 49.5782 89.3918 49.9646 89.3145C50.3123 89.2759 50.5441 89.0634 50.66 88.677C50.7373 88.2906 50.776 88.0008 50.776 87.8076V76.9115C50.776 76.7183 50.8146 76.3899 50.8919 75.9262C50.8919 75.6557 51.0464 75.4432 51.3555 75.2887C51.5874 75.2114 51.7613 75.1727 51.8772 75.1727C52.7272 75.0955 53.3648 75.0568 53.7898 75.0568C54.2921 75.0955 54.7171 75.1148 55.0649 75.1148C55.4126 75.0761 55.7024 75.0568 55.9342 75.0568C57.0548 75.0568 58.1946 74.7864 59.3538 74.2454C60.2425 73.859 61.1505 73.2022 62.0778 72.2748C63.0438 71.2702 63.72 70.1111 64.1063 68.7973C64.4155 67.3291 64.5893 66.2472 64.628 65.5517L64.6859 64.0448V63.0595C64.7246 62.6731 64.7246 62.2287 64.6859 61.7264L64.3382 58.7706C64.2223 57.8819 64.0291 57.0705 63.7586 56.3363C63.1017 54.7521 62.2324 53.535 61.1505 52.685C59.5277 51.4099 57.6343 50.7723 55.4706 50.7723C53.6932 50.7337 51.0078 50.7144 47.4144 50.7144C47.2598 50.7144 47.028 50.753 46.7189 50.8303C46.1779 50.9076 45.8688 51.236 45.7916 51.8156L45.6756 53.3225V60.2195C45.7143 61.5719 45.7336 63.6197 45.7336 66.3631V72.5646C45.7722 73.9556 45.7916 76.0614 45.7916 78.8821C45.7916 81.6641 45.7529 83.7699 45.6756 85.1995V86.7644L45.7916 88.2713C45.7916 88.3872 45.8302 88.5611 45.9075 88.7929C45.9848 89.0634 46.1586 89.2373 46.4291 89.3145ZM47.4723 85.3154C47.5883 85.4313 47.5883 85.5859 47.4723 85.7791C47.4723 85.7405 47.4337 85.6825 47.3564 85.6052C47.3178 85.4893 47.3564 85.3927 47.4723 85.3154ZM46.8928 84.2142C46.9314 84.1756 47.0087 84.1563 47.1246 84.1563L46.8928 84.4461C46.8541 84.2915 46.8541 84.2142 46.8928 84.2142ZM47.3564 83.5767C47.5883 83.6926 47.7042 83.8085 47.7042 83.9244V84.562C47.5883 84.562 47.5303 84.5233 47.5303 84.4461L47.4144 83.8665L47.0666 83.6926C46.9507 83.6926 46.8155 83.7312 46.6609 83.8085C46.6223 83.6153 46.6609 83.4801 46.7769 83.4028L47.0087 83.171C47.0473 83.3255 47.1632 83.4608 47.3564 83.5767ZM49.327 84.7358L49.2111 85.0836L49.0372 84.9677C49.0372 84.7745 49.0565 84.6392 49.0952 84.562L49.1531 84.504L49.327 84.7358ZM47.4723 82.5914L47.7621 82.9971L47.7042 83.171C47.5883 83.0937 47.4144 83.0164 47.1826 82.9391C47.1053 82.7846 47.0666 82.63 47.0666 82.4755L47.4723 82.5914ZM47.936 83.171L48.2258 83.3448L48.0519 83.6926L47.8201 83.5187L47.936 83.171ZM47.5883 81.1424C47.6655 81.2584 47.6269 81.3163 47.4723 81.3163L47.2405 81.2004V81.0845C47.3178 81.1231 47.4337 81.1424 47.5883 81.1424ZM48.1678 81.3743H48.3417L48.5736 81.8379L48.1678 81.78V81.3743ZM48.0519 81.1424H47.8781L47.936 80.8526L48.1678 80.9686C48.1678 81.0458 48.1292 81.1038 48.0519 81.1424ZM49.5588 82.2436C49.6748 82.2436 49.752 82.263 49.7907 82.3016L49.2691 82.4755L48.7474 82.0698C48.7474 81.9538 48.7861 81.8766 48.8633 81.8379L49.0372 81.6641C49.1145 81.6254 49.1531 81.5868 49.1531 81.5481C49.1918 81.4709 49.2304 81.4129 49.2691 81.3743C49.4236 81.4129 49.5395 81.5675 49.6168 81.8379L49.4429 82.0118C49.4429 82.1277 49.4816 82.205 49.5588 82.2436ZM47.4723 80.6208C47.3951 80.7754 47.3178 80.8913 47.2405 80.9686L46.9507 80.7947L47.5303 80.389C47.5303 80.5049 47.511 80.5822 47.4723 80.6208ZM47.7621 80.2731L47.5303 80.389L47.4144 80.0992C47.3052 79.9173 47.2817 79.7525 47.3439 79.6048L47.5883 79.7514L47.7621 80.2731ZM47.7621 80.2731L47.8781 80.5049L48.3997 80.331C48.5929 80.5242 48.8054 80.6208 49.0372 80.6208L48.9793 80.331L48.4576 80.0412C48.2258 80.0412 48.0519 80.0606 47.936 80.0992L47.7621 80.2731ZM47.2985 79.5776V79.5196C47.2985 79.4423 47.3178 79.3651 47.3564 79.2878C47.4337 79.2105 47.4723 79.1332 47.4723 79.0559L47.4144 78.94L47.1826 78.998C47.1826 78.9593 47.1439 78.8627 47.0666 78.7082H47.5883L47.3564 78.3604C47.0473 78.5536 46.8155 78.7662 46.6609 78.998C46.7382 78.998 46.8541 79.0366 47.0087 79.1139C46.9314 79.3457 46.8541 79.6162 46.7769 79.9253H46.8348L47.0087 79.5776H47.2985ZM49.9646 81.1424L49.8486 81.4322H49.6748L49.4429 81.1424C49.3657 81.0652 49.2884 80.8913 49.2111 80.6208H49.4429L49.6748 81.0845C49.7134 81.1231 49.81 81.1424 49.9646 81.1424ZM48.6315 79.6355C48.6702 79.5969 48.6895 79.5969 48.6895 79.6355L49.0372 79.9833C48.9599 80.0219 48.8633 80.0219 48.7474 79.9833C48.6702 79.9446 48.6122 79.906 48.5736 79.8674C48.6122 79.7901 48.6315 79.6935 48.6315 79.5776V79.6355ZM49.5588 80.4469C49.5202 80.4469 49.4816 80.4663 49.4429 80.5049L49.385 80.389C49.4622 80.3117 49.4816 80.2151 49.4429 80.0992V79.8094L49.5588 79.6355L49.8486 79.8094C49.7714 80.0412 49.7327 80.2344 49.7327 80.389C49.6941 80.4276 49.6361 80.4469 49.5588 80.4469ZM47.1246 77.1433C47.2405 77.066 47.3371 77.124 47.4144 77.3172C47.2985 77.4331 47.1826 77.4524 47.0666 77.3752L47.1246 77.1433ZM47.8201 77.2013L48.1678 77.3172L47.7042 77.6649C47.6269 77.549 47.6269 77.4524 47.7042 77.3752C47.7815 77.2979 47.8201 77.2399 47.8201 77.2013ZM49.5588 78.0707L49.4429 78.7661H49.327C49.2884 78.6889 49.2691 78.6309 49.2691 78.5923C49.3077 78.515 49.327 78.4377 49.327 78.3604L49.2691 78.1286C49.3463 78.09 49.4429 78.0707 49.5588 78.0707ZM47.5303 55.8147C47.5689 55.8533 47.5883 55.892 47.5883 55.9306H47.1826C47.2212 55.7374 47.3371 55.6795 47.5303 55.7568V55.8147ZM58.1946 69.0871C57.4991 69.6667 56.6877 69.9565 55.7604 69.9565L51.8772 70.0145C51.2203 70.0145 50.8532 69.686 50.776 69.0292V57.7273C50.776 57.3409 50.7953 57.0318 50.8339 56.8C50.8726 56.4909 50.9692 56.2784 51.1237 56.1625C51.2783 56.0079 51.5101 55.892 51.8192 55.8147H52.2249H53.6159C54.1569 55.7761 54.7944 55.7761 55.5285 55.8147C56.9582 55.892 58.0401 56.4909 58.7742 57.6114C59.1219 58.1524 59.2958 58.8479 59.2958 59.6979C59.3345 60.3161 59.3538 61.2241 59.3538 62.4219L59.4117 62.8856V63.0595C59.4504 63.0981 59.4504 63.1561 59.4117 63.2334C59.3731 63.3493 59.3538 63.5618 59.3538 63.8709V64.9141C59.3538 65.9188 59.3151 66.6722 59.2379 67.1745C59.1219 67.9087 58.7742 68.5462 58.1946 69.0871ZM48.0519 55.467C47.9747 55.4283 47.8974 55.409 47.8201 55.409L47.5883 55.5249L47.5303 55.467L47.7042 55.0033L47.936 55.1772L48.1678 55.0613L48.3417 55.409C48.2644 55.4863 48.1678 55.5056 48.0519 55.467ZM47.2405 54.7135C47.2792 54.8294 47.2405 54.8874 47.1246 54.8874H47.0666V54.8294C47.0666 54.6362 47.1246 54.4237 47.2405 54.1919C47.4337 54.1919 47.5303 54.2112 47.5303 54.2498L47.7042 54.4237H47.8781L48.0519 54.6555V54.7715L47.7042 54.7135L47.4723 54.7715C47.3951 54.6942 47.3564 54.6169 47.3564 54.5396C47.2792 54.5396 47.2405 54.5976 47.2405 54.7135ZM48.6315 54.5396C48.7088 54.6169 48.7667 54.6942 48.8054 54.7715C48.5736 54.7328 48.4383 54.6362 48.3997 54.4817C48.361 54.3271 48.3224 54.2112 48.2838 54.1339L48.3417 53.96C48.419 53.9214 48.5156 53.9021 48.6315 53.9021C48.6702 53.8634 48.7474 53.8441 48.8633 53.8441C48.8633 53.9987 48.844 54.0953 48.8054 54.1339L48.5736 54.2498C48.5349 54.3271 48.5542 54.4237 48.6315 54.5396ZM48.1099 53.3805C48.1872 53.3418 48.3031 53.3225 48.4576 53.3225L48.2838 53.6703L48.1099 53.3805ZM49.327 53.3805C49.2497 53.4577 49.1338 53.4577 48.9793 53.3805C48.9793 53.3032 49.0179 53.2259 49.0952 53.1486C49.2111 53.0714 49.2691 53.0134 49.2691 52.9748L49.2111 52.8588L49.5009 52.8009C49.5009 52.9941 49.4816 53.1293 49.4429 53.2066L49.327 53.3805ZM50.3123 53.5543C50.3123 53.593 50.293 53.593 50.2543 53.5543C50.0225 53.5543 49.868 53.4771 49.7907 53.3225L50.1964 53.1486L50.4282 53.4964C50.3896 53.4964 50.3509 53.5157 50.3123 53.5543ZM50.9498 53.7282C51.0271 53.6896 51.1237 53.6896 51.2396 53.7282L51.0658 53.96L50.8339 53.9021V53.7862C50.8726 53.7475 50.9112 53.7282 50.9498 53.7282ZM61.7301 61.7264C61.8846 61.8037 61.9619 61.939 61.9619 62.1322L61.846 62.2481C61.6914 62.0935 61.6528 61.9196 61.7301 61.7264ZM54.6012 54.4237C54.5239 54.4237 54.3887 54.4817 54.1955 54.5976C54.2341 54.4044 54.2921 54.2692 54.3694 54.1919C54.3694 54.1532 54.3501 54.1146 54.3114 54.076C54.3114 53.9987 54.3694 53.9407 54.4853 53.9021C54.4853 54.018 54.5239 54.1919 54.6012 54.4237ZM61.2664 59.0024L61.5562 59.4081H61.2664V59.0024ZM56.5138 53.9021C56.2047 53.9794 55.9729 54.018 55.8183 54.018H55.5865L55.8183 53.7282C55.857 53.7669 55.9342 53.7862 56.0502 53.7862L56.4559 53.4964L56.5138 53.9021ZM56.5138 53.4384C56.4752 53.4384 56.4559 53.4577 56.4559 53.4964L56.282 52.8588C56.1661 52.8202 56.0502 52.8782 55.9342 53.0327C55.857 53.1873 55.7797 53.2645 55.7024 53.2645C55.7411 53.0714 55.799 52.9168 55.8763 52.8009C55.9536 52.6463 56.0888 52.4531 56.282 52.2213C56.3979 52.2213 56.4752 52.2406 56.5138 52.2793L56.6297 52.3372L56.5718 52.569L56.5138 52.685L56.5718 53.4384H56.5138ZM62.1358 58.5387L61.9039 58.9445H61.2664C61.1505 58.7899 61.1312 58.5967 61.2084 58.3649C61.363 58.4421 61.4982 58.4808 61.6141 58.4808C61.7301 58.5194 61.9039 58.5387 62.1358 58.5387ZM58.4844 55.0033L58.7742 55.1772L58.4844 55.467C58.4071 55.3897 58.3878 55.3124 58.4264 55.2351C58.4651 55.1579 58.4844 55.0806 58.4844 55.0033ZM61.3244 57.8432C61.363 57.8432 61.4596 57.8819 61.6141 57.9592L61.5562 58.0751L61.1505 57.9592C61.1118 57.9205 61.1118 57.8819 61.1505 57.8432C61.2278 57.8046 61.2857 57.8046 61.3244 57.8432ZM57.673 53.96C57.5184 54.0373 57.4025 54.1146 57.3252 54.1919L56.9195 54.018C56.9582 53.9407 56.9775 53.7862 56.9775 53.5543L56.8616 53.3225L57.3832 53.1486C57.4991 53.3032 57.6344 53.4384 57.7889 53.5543C57.7116 53.7089 57.673 53.8441 57.673 53.96ZM61.2084 57.5535C61.2471 57.5535 61.305 57.5148 61.3823 57.4375L61.788 57.6114C61.5176 57.6887 61.3244 57.6694 61.2084 57.5535ZM61.2084 57.5535C61.1698 57.5535 61.0925 57.5341 60.9766 57.4955C60.8993 57.4569 60.8221 57.3989 60.7448 57.3216L60.8607 57.2057C60.938 57.2443 60.9959 57.3023 61.0346 57.3796L61.2084 57.5535ZM60.3391 56.6841L60.5129 56.4523L60.6289 56.5682L60.397 56.742C60.397 56.7034 60.3777 56.6841 60.3391 56.6841ZM57.4991 54.6555C57.4991 54.8101 57.4025 54.926 57.2093 55.0033L56.9775 54.8874C57.0161 54.8487 57.0354 54.7908 57.0354 54.7135C57.2286 54.7135 57.3832 54.6942 57.4991 54.6555ZM57.8469 54.8294L57.4991 54.6555L57.4412 54.5976C57.4412 54.5203 57.4798 54.4623 57.5571 54.4237L57.615 54.1919H58.0207L58.1946 53.7862L58.5424 53.6123C58.6583 53.6123 58.7935 53.6509 58.9481 53.7282L59.1219 53.6123V53.9021C59.0447 53.9794 58.9481 54.018 58.8322 54.018C58.7162 53.9794 58.639 53.96 58.6003 53.96L58.4844 54.3078L58.1367 54.3658L57.8469 54.8294ZM59.1219 53.6123C59.0833 53.4577 59.1799 53.3032 59.4117 53.1486L59.8174 53.5543C59.7402 53.593 59.6629 53.6123 59.5856 53.6123C59.5083 53.5737 59.4504 53.5543 59.4117 53.5543C59.3731 53.5157 59.3151 53.5157 59.2379 53.5543C59.1992 53.593 59.1606 53.6123 59.1219 53.6123ZM57.2093 52.685L57.0934 52.9168H56.8616V52.8009L57.2093 52.3952L57.5571 52.685C57.5184 52.7236 57.4605 52.7429 57.3832 52.7429C57.3059 52.7043 57.248 52.685 57.2093 52.685ZM59.5856 54.9453C59.7015 54.9453 59.8368 55.0226 59.9913 55.1772L59.7595 55.351L59.4117 55.0033C59.4504 54.9647 59.5083 54.9453 59.5856 54.9453ZM60.8607 55.2931L60.9766 55.409V56.4523C60.8993 56.375 60.8414 56.2977 60.8027 56.2204C60.7641 56.1045 60.7061 56.0272 60.6289 55.9886L60.5129 56.0465L60.2811 56.1045L59.9334 55.7568L60.1652 55.6988L60.397 55.8727L60.5709 55.409C60.6095 55.3704 60.6482 55.351 60.6868 55.351C60.7641 55.351 60.8221 55.3317 60.8607 55.2931ZM63.237 58.8865C63.1597 59.0024 63.0631 59.0604 62.9472 59.0604H62.8313C62.8313 58.9445 62.8699 58.8479 62.9472 58.7706C63.0631 58.6933 63.1404 58.616 63.179 58.5387L62.9472 58.0171C63.0631 57.9785 63.1404 57.9978 63.179 58.0751C63.2563 58.1524 63.3143 58.1717 63.3529 58.133L63.5268 58.6547C63.4495 58.6933 63.3529 58.7706 63.237 58.8865ZM58.8901 54.4817L59.1799 54.1919V54.5396C59.064 54.5396 58.9674 54.5203 58.8901 54.4817ZM62.2517 56.1625C62.2517 56.5102 62.3483 56.8386 62.5415 57.1477C62.4642 57.1864 62.3869 57.1864 62.3096 57.1477C62.2324 57.0705 62.1551 57.0318 62.0778 57.0318L61.788 57.0898L61.7301 57.0318C61.8073 56.9932 61.8653 56.9159 61.9039 56.8C61.9426 56.6841 61.9619 56.6068 61.9619 56.5682V56.3363C62.0005 56.2204 62.0971 56.1625 62.2517 56.1625ZM58.9481 52.627V52.8588L58.8322 52.9168L58.5424 52.7429L58.6583 52.627C58.7356 52.5497 58.8322 52.5497 58.9481 52.627ZM61.1505 54.6555C61.1505 54.7328 61.1312 54.7908 61.0925 54.8294L60.5709 54.7715L60.397 54.3658L60.6868 54.3078L61.1505 54.6555Z" fill="white"/>
</g>
<defs>
<filter id="filter0_f_3253_15844" x="14.5947" y="6.48657" width="68.6487" height="68.6487" filterUnits="userSpaceOnUse" color-interpolation-filters="sRGB">
<feFlood flood-opacity="0" result="BackgroundImageFix"/>
<feBlend mode="normal" in="SourceGraphic" in2="BackgroundImageFix" result="shape"/>
<feGaussianBlur stdDeviation="5" result="effect1_foregroundBlur_3253_15844"/>
</filter>
<filter id="filter1_f_3253_15844" x="0" y="30.8108" width="68.6487" height="68.6487" filterUnits="userSpaceOnUse" color-interpolation-filters="sRGB">
<feFlood flood-opacity="0" result="BackgroundImageFix"/>
<feBlend mode="normal" in="SourceGraphic" in2="BackgroundImageFix" result="shape"/>
<feGaussianBlur stdDeviation="5" result="effect1_foregroundBlur_3253_15844"/>
</filter>
<filter id="filter2_f_3253_15844" x="4.86499" y="51.892" width="68.6487" height="68.6487" filterUnits="userSpaceOnUse" color-interpolation-filters="sRGB">
<feFlood flood-opacity="0" result="BackgroundImageFix"/>
<feBlend mode="normal" in="SourceGraphic" in2="BackgroundImageFix" result="shape"/>
<feGaussianBlur stdDeviation="5" result="effect1_foregroundBlur_3253_15844"/>
</filter>
<filter id="filter3_f_3253_15844" x="21.0811" y="69.7297" width="68.6487" height="68.6487" filterUnits="userSpaceOnUse" color-interpolation-filters="sRGB">
<feFlood flood-opacity="0" result="BackgroundImageFix"/>
<feBlend mode="normal" in="SourceGraphic" in2="BackgroundImageFix" result="shape"/>
<feGaussianBlur stdDeviation="5" result="effect1_foregroundBlur_3253_15844"/>
</filter>
<filter id="filter4_f_3253_15844" x="47.0269" y="71.3514" width="68.6487" height="68.6487" filterUnits="userSpaceOnUse" color-interpolation-filters="sRGB">
<feFlood flood-opacity="0" result="BackgroundImageFix"/>
<feBlend mode="normal" in="SourceGraphic" in2="BackgroundImageFix" result="shape"/>
<feGaussianBlur stdDeviation="5" result="effect1_foregroundBlur_3253_15844"/>
</filter>
<filter id="filter5_f_3253_15844" x="66.4863" y="55.1351" width="68.6487" height="68.6487" filterUnits="userSpaceOnUse" color-interpolation-filters="sRGB">
<feFlood flood-opacity="0" result="BackgroundImageFix"/>
<feBlend mode="normal" in="SourceGraphic" in2="BackgroundImageFix" result="shape"/>
<feGaussianBlur stdDeviation="5" result="effect1_foregroundBlur_3253_15844"/>
</filter>
<filter id="filter6_f_3253_15844" x="71.3513" y="29.1892" width="68.6487" height="68.6487" filterUnits="userSpaceOnUse" color-interpolation-filters="sRGB">
<feFlood flood-opacity="0" result="BackgroundImageFix"/>
<feBlend mode="normal" in="SourceGraphic" in2="BackgroundImageFix" result="shape"/>
<feGaussianBlur stdDeviation="5" result="effect1_foregroundBlur_3253_15844"/>
</filter>
<filter id="filter7_f_3253_15844" x="58.3784" y="6.48657" width="68.6487" height="68.6487" filterUnits="userSpaceOnUse" color-interpolation-filters="sRGB">
<feFlood flood-opacity="0" result="BackgroundImageFix"/>
<feBlend mode="normal" in="SourceGraphic" in2="BackgroundImageFix" result="shape"/>
<feGaussianBlur stdDeviation="5" result="effect1_foregroundBlur_3253_15844"/>
</filter>
<filter id="filter8_f_3253_15844" x="34.0542" y="0" width="68.6487" height="68.6487" filterUnits="userSpaceOnUse" color-interpolation-filters="sRGB">
<feFlood flood-opacity="0" result="BackgroundImageFix"/>
<feBlend mode="normal" in="SourceGraphic" in2="BackgroundImageFix" result="shape"/>
<feGaussianBlur stdDeviation="5" result="effect1_foregroundBlur_3253_15844"/>
</filter>
<filter id="filter9_d_3253_15844" x="11.3513" y="1.35144" width="137.297" height="137.297" filterUnits="userSpaceOnUse" color-interpolation-filters="sRGB">
<feFlood flood-opacity="0" result="BackgroundImageFix"/>
<feColorMatrix in="SourceAlpha" type="matrix" values="0 0 0 0 0 0 0 0 0 0 0 0 0 0 0 0 0 0 127 0" result="hardAlpha"/>
<feOffset dx="10"/>
<feGaussianBlur stdDeviation="10"/>
<feComposite in2="hardAlpha" operator="out"/>
<feColorMatrix type="matrix" values="0 0 0 0 0 0 0 0 0 0 0 0 0 0 0 0 0 0 0.2 0"/>
<feBlend mode="normal" in2="BackgroundImageFix" result="effect1_dropShadow_3253_15844"/>
<feBlend mode="normal" in="SourceGraphic" in2="effect1_dropShadow_3253_15844" result="shape"/>
</filter>
</defs>
</svg>
