<svg width="52" height="52" viewBox="0 0 52 52" fill="none" xmlns="http://www.w3.org/2000/svg">
<path id="left arrow" d="M51.5 40.5839L51.5 40.5833L51.5 11.4167L51.5 11.4161C51.4965 8.52202 50.3453 5.74749 48.2989 3.70108C46.2525 1.65467 43.478 0.503474 40.5839 0.500007L40.5833 0.500007L11.4167 0.500001L11.4161 0.500002C8.52201 0.503468 5.74748 1.65466 3.70107 3.70107C1.65466 5.74748 0.503466 8.52201 0.499998 11.4161L0.499998 11.4167L0.499993 40.5833L0.499993 40.5839C0.50346 43.478 1.65465 46.2525 3.70106 48.2989C5.74747 50.3453 8.522 51.4965 11.4161 51.5L11.4167 51.5L40.5833 51.5L40.5839 51.5C43.478 51.4965 46.2525 50.3453 48.2989 48.2989C50.3453 46.2525 51.4965 43.478 51.5 40.5839ZM21.0784 37.5422L21.0784 37.5422L21.0723 37.536L13.6015 30.0652L13.6014 30.0652C13.0674 29.5312 12.6438 28.8973 12.3547 28.1996C12.0657 27.5019 11.917 26.7541 11.917 25.999C11.917 25.2438 12.0657 24.496 12.3547 23.7983C12.6438 23.1006 13.0674 22.4667 13.6014 21.9328L21.0686 14.4676L21.1171 14.4211L21.1225 14.416L21.1277 14.4107C21.2758 14.2598 21.4527 14.14 21.6478 14.0586C21.843 13.9772 22.0525 13.9356 22.264 13.9365C22.4754 13.9373 22.6846 13.9805 22.8791 14.0635C23.0736 14.1466 23.2495 14.2677 23.3964 14.4198C23.5433 14.5719 23.6583 14.7519 23.7345 14.9491C23.8107 15.1464 23.8467 15.3569 23.8402 15.5683C23.8337 15.7797 23.7849 15.9876 23.6968 16.1798C23.6086 16.3721 23.4829 16.5447 23.3269 16.6875L23.3188 16.6949L23.311 16.7027L16.4506 23.5631L15.5962 24.4175L16.8045 24.4167L38.5 24.4021C38.5001 24.4021 38.5002 24.4021 38.5003 24.4021C38.9201 24.4022 39.3227 24.569 39.6196 24.8658C39.9165 25.1628 40.0833 25.5655 40.0833 25.9854C40.0833 26.4053 39.9165 26.8081 39.6196 27.105C39.3226 27.4019 38.9199 27.5688 38.5 27.5688L38.4997 27.5688L16.8059 27.5833L15.6002 27.5841L16.4526 28.4368L23.311 35.2972L23.3109 35.2973L23.3172 35.3034C23.4684 35.4495 23.5891 35.6242 23.672 35.8173C23.755 36.0105 23.7987 36.2183 23.8005 36.4285C23.8024 36.6387 23.7623 36.8472 23.6827 37.0418C23.6031 37.2364 23.4855 37.4132 23.3368 37.5619C23.1882 37.7105 23.0114 37.8281 22.8168 37.9077C22.6222 37.9873 22.4137 38.0274 22.2035 38.0255C21.9933 38.0237 21.7855 37.98 21.5923 37.8971C21.3992 37.8141 21.2244 37.6935 21.0784 37.5422Z" fill="white" fill-opacity="0.25" stroke="white"/>
</svg>
