<svg width="52" height="52" viewBox="0 0 52 52" fill="none" xmlns="http://www.w3.org/2000/svg">
<g filter="url(#filter0_b_3175_14538)">
<path d="M51 40.5833L51 11.4167C50.9967 8.65502 49.8982 6.00742 47.9454 4.05463C45.9926 2.10185 43.345 1.00332 40.5833 1.00001L11.4167 1C8.65501 1.00331 6.00741 2.10184 4.05462 4.05463C2.10184 6.00741 1.00331 8.65501 0.999998 11.4167L0.999993 40.5833C1.0033 43.345 2.10183 45.9926 4.05462 47.9454C6.0074 49.8982 8.655 50.9967 11.4167 51L40.5833 51C43.345 50.9967 45.9926 49.8982 47.9454 47.9454C49.8982 45.9926 50.9967 43.345 51 40.5833ZM20.7187 37.8896L13.2479 30.4188C12.6674 29.8384 12.207 29.1493 11.8928 28.391C11.5787 27.6326 11.417 26.8198 11.417 25.999C11.417 25.1781 11.5787 24.3653 11.8928 23.6069C12.207 22.8486 12.6674 22.1595 13.2479 21.5792L20.7187 14.1104L20.7708 14.0604C20.9657 13.8618 21.1985 13.7043 21.4553 13.5972C21.7121 13.49 21.9877 13.4354 22.266 13.4365C22.5442 13.4376 22.8194 13.4945 23.0754 13.6037C23.3313 13.7129 23.5627 13.8723 23.756 14.0724C23.9494 14.2726 24.1006 14.5094 24.2009 14.7689C24.3012 15.0285 24.3485 15.3055 24.3399 15.5836C24.3314 15.8618 24.2673 16.1354 24.1513 16.3883C24.0353 16.6412 23.8698 16.8683 23.6646 17.0563L16.8042 23.9167L38.5 23.9021C39.0525 23.9021 39.5824 24.1216 39.9731 24.5123C40.3638 24.903 40.5833 25.4329 40.5833 25.9854C40.5833 26.538 40.3638 27.0679 39.9731 27.4586C39.5824 27.8493 39.0525 28.0688 38.5 28.0688L16.8062 28.0833L23.6646 34.9437C23.8636 35.1359 24.0223 35.3658 24.1315 35.62C24.2406 35.8742 24.2981 36.1475 24.3005 36.4242C24.3029 36.7008 24.2502 36.9751 24.1455 37.2312C24.0407 37.4872 23.886 37.7198 23.6904 37.9154C23.4948 38.111 23.2622 38.2657 23.0061 38.3705C22.7501 38.4752 22.4758 38.5279 22.1992 38.5255C21.9225 38.5231 21.6492 38.4656 21.395 38.3565C21.1408 38.2473 20.9109 38.0886 20.7187 37.8896Z" fill="white" fill-opacity="0.5"/>
<path d="M51.5 40.5839L51.5 40.5833L51.5 11.4167L51.5 11.4161C51.4965 8.52202 50.3453 5.74749 48.2989 3.70108C46.2525 1.65467 43.478 0.503474 40.5839 0.500007L40.5833 0.500007L11.4167 0.500001L11.4161 0.500002C8.52201 0.503468 5.74748 1.65466 3.70107 3.70107C1.65466 5.74748 0.503466 8.52201 0.499998 11.4161L0.499998 11.4167L0.499993 40.5833L0.499993 40.5839C0.50346 43.478 1.65465 46.2525 3.70106 48.2989C5.74747 50.3453 8.522 51.4965 11.4161 51.5L11.4167 51.5L40.5833 51.5L40.5839 51.5C43.478 51.4965 46.2525 50.3453 48.2989 48.2989C50.3453 46.2525 51.4965 43.478 51.5 40.5839ZM21.0784 37.5422L21.0784 37.5422L21.0723 37.536L13.6015 30.0652L13.6014 30.0652C13.0674 29.5312 12.6438 28.8973 12.3547 28.1996C12.0657 27.5019 11.917 26.7541 11.917 25.999C11.917 25.2438 12.0657 24.496 12.3547 23.7983C12.6438 23.1006 13.0674 22.4667 13.6014 21.9328C13.6014 21.9328 13.6014 21.9328 13.6014 21.9328L21.0686 14.4676L21.1171 14.4211L21.1225 14.416L21.1277 14.4107C21.2758 14.2598 21.4527 14.14 21.6478 14.0586C21.843 13.9772 22.0525 13.9356 22.264 13.9365C22.4754 13.9373 22.6846 13.9805 22.8791 14.0635C23.0736 14.1466 23.2495 14.2677 23.3964 14.4198C23.5433 14.5719 23.6583 14.7519 23.7345 14.9491C23.8107 15.1464 23.8467 15.3569 23.8402 15.5683C23.8337 15.7797 23.7849 15.9876 23.6968 16.1798C23.6086 16.3721 23.4829 16.5447 23.3269 16.6875L23.3188 16.6949L23.311 16.7027L16.4506 23.5631L15.5962 24.4175L16.8045 24.4167L38.5 24.4021C38.5001 24.4021 38.5002 24.4021 38.5003 24.4021C38.9201 24.4022 39.3227 24.569 39.6196 24.8658C39.9165 25.1628 40.0833 25.5655 40.0833 25.9854C40.0833 26.4053 39.9165 26.8081 39.6196 27.105C39.3226 27.4019 38.9199 27.5688 38.5 27.5688L38.4997 27.5688L16.8059 27.5833L15.6002 27.5841L16.4526 28.4368L23.311 35.2972L23.3109 35.2973L23.3172 35.3034C23.4684 35.4494 23.5891 35.6242 23.672 35.8173C23.755 36.0105 23.7987 36.2183 23.8005 36.4285C23.8024 36.6387 23.7623 36.8472 23.6827 37.0418C23.6031 37.2364 23.4855 37.4132 23.3368 37.5619C23.1882 37.7105 23.0114 37.8281 22.8168 37.9077C22.6222 37.9873 22.4137 38.0274 22.2035 38.0255C21.9933 38.0237 21.7855 37.98 21.5923 37.8971C21.3992 37.8141 21.2244 37.6935 21.0784 37.5422Z" stroke="white"/>
</g>
<defs>
<filter id="filter0_b_3175_14538" x="-40" y="-40" width="132" height="132" filterUnits="userSpaceOnUse" color-interpolation-filters="sRGB">
<feFlood flood-opacity="0" result="BackgroundImageFix"/>
<feGaussianBlur in="BackgroundImageFix" stdDeviation="20"/>
<feComposite in2="SourceAlpha" operator="in" result="effect1_backgroundBlur_3175_14538"/>
<feBlend mode="normal" in="SourceGraphic" in2="effect1_backgroundBlur_3175_14538" result="shape"/>
</filter>
</defs>
</svg>
