<svg width="52" height="52" viewBox="0 0 52 52" fill="none" xmlns="http://www.w3.org/2000/svg">
<g id="right arrow" filter="url(#filter0_b_3240_15641)">
<path d="M0.999998 11.4167L1 40.5833C1.00331 43.345 2.10184 45.9926 4.05463 47.9454C6.00742 49.8982 8.65501 50.9967 11.4167 51L40.5833 51C43.345 50.9967 45.9926 49.8982 47.9454 47.9454C49.8982 45.9926 50.9967 43.345 51 40.5833L51 11.4167C50.9967 8.65501 49.8982 6.00742 47.9454 4.05463C45.9926 2.10184 43.345 1.00331 40.5833 1L11.4167 1.00001C8.65501 1.00331 6.00741 2.10185 4.05463 4.05463C2.10184 6.00742 1.00331 8.65502 0.999998 11.4167ZM31.2812 14.1104L38.7521 21.5813C39.3326 22.1616 39.793 22.8507 40.1072 23.609C40.4213 24.3674 40.583 25.1802 40.583 26.001C40.583 26.8219 40.4213 27.6347 40.1072 28.3931C39.793 29.1514 39.3326 29.8405 38.7521 30.4208L31.2813 37.8896L31.2292 37.9396C31.0342 38.1382 30.8015 38.2957 30.5447 38.4028C30.2879 38.51 30.0123 38.5646 29.734 38.5635C29.4558 38.5624 29.1806 38.5056 28.9246 38.3963C28.6687 38.2871 28.4373 38.1277 28.244 37.9276C28.0506 37.7275 27.8994 37.4906 27.7991 37.2311C27.6988 36.9715 27.6515 36.6945 27.66 36.4164C27.6686 36.1382 27.7327 35.8646 27.8487 35.6117C27.9647 35.3588 28.1302 35.1317 28.3354 34.9438L35.1958 28.0833L13.5 28.0979C12.9475 28.0979 12.4176 27.8784 12.0269 27.4877C11.6362 27.097 11.4167 26.5671 11.4167 26.0146C11.4167 25.4621 11.6362 24.9322 12.0269 24.5415C12.4176 24.1507 12.9475 23.9313 13.5 23.9313L35.1937 23.9167L28.3354 17.0563C28.1364 16.8641 27.9777 16.6342 27.8685 16.38C27.7594 16.1258 27.7019 15.8525 27.6995 15.5758C27.6971 15.2992 27.7498 15.0249 27.8545 14.7689C27.9593 14.5128 28.114 14.2802 28.3096 14.0846C28.5052 13.889 28.7378 13.7343 28.9938 13.6295C29.2499 13.5248 29.5242 13.4721 29.8008 13.4745C30.0775 13.4769 30.3508 13.5344 30.605 13.6435C30.8592 13.7527 31.0891 13.9114 31.2812 14.1104Z" fill="black" fill-opacity="0.25"/>
<path d="M0.499997 11.4161L0.499997 11.4167L0.499999 40.5833L0.500003 40.5839C0.503467 43.478 1.65467 46.2525 3.70108 48.2989C5.74749 50.3453 8.52201 51.4965 11.4161 51.5L11.4167 51.5L40.5833 51.5L40.5839 51.5C43.478 51.4965 46.2525 50.3453 48.2989 48.2989C50.3453 46.2525 51.4965 43.478 51.5 40.5839L51.5 40.5833L51.5 11.4167L51.5 11.4161C51.4965 8.52201 50.3453 5.74749 48.2989 3.70108C46.2525 1.65467 43.478 0.503468 40.5839 0.500001L40.5833 0.500001L11.4167 0.500003L11.4161 0.500007C8.52201 0.503471 5.74748 1.65467 3.70107 3.70108C1.65466 5.74749 0.503464 8.52202 0.499997 11.4161ZM30.9216 14.4578L30.9215 14.4578L30.9277 14.464L38.3985 21.9348L38.3986 21.9348C38.9326 22.4688 39.3562 23.1027 39.6453 23.8004C39.9343 24.4981 40.083 25.2459 40.083 26.001C40.083 26.7562 39.9343 27.504 39.6453 28.2017C39.3562 28.8994 38.9326 29.5333 38.3986 30.0673L30.9314 37.5324L30.8829 37.5789L30.8775 37.584L30.8723 37.5893C30.7242 37.7403 30.5473 37.86 30.3522 37.9414C30.157 38.0229 29.9475 38.0644 29.736 38.0635C29.5246 38.0627 29.3154 38.0195 29.1209 37.9365C28.9264 37.8535 28.7505 37.7323 28.6036 37.5802C28.4567 37.4281 28.3417 37.2481 28.2655 37.0509C28.1893 36.8536 28.1533 36.6431 28.1598 36.4317C28.1663 36.2203 28.215 36.0124 28.3032 35.8202C28.3914 35.6279 28.5171 35.4553 28.6731 35.3125L28.6812 35.3051L28.689 35.2973L35.5494 28.4369L36.4038 27.5825L35.1955 27.5833L13.5 27.5979C13.4999 27.5979 13.4998 27.5979 13.4997 27.5979C13.0799 27.5978 12.6773 27.431 12.3804 27.1342C12.0835 26.8372 11.9167 26.4345 11.9167 26.0146C11.9167 25.5947 12.0835 25.1919 12.3804 24.895C12.6773 24.5981 13.0801 24.4313 13.5 24.4313L13.5003 24.4313L35.1941 24.4167L36.3998 24.4159L35.5474 23.5632L28.689 16.7028L28.6891 16.7027L28.6828 16.6966C28.5316 16.5506 28.4109 16.3758 28.3279 16.1827C28.245 15.9895 28.2013 15.7817 28.1995 15.5715C28.1976 15.3613 28.2377 15.1528 28.3173 14.9582C28.3969 14.7636 28.5145 14.5868 28.6631 14.4382C28.8118 14.2895 28.9886 14.1719 29.1832 14.0923C29.3778 14.0127 29.5863 13.9726 29.7965 13.9745C30.0067 13.9763 30.2145 14.02 30.4077 14.1029C30.6008 14.1859 30.7755 14.3066 30.9216 14.4578Z" stroke="#D9D9D9"/>
</g>
<defs>
<filter id="filter0_b_3240_15641" x="-40" y="-40" width="132" height="132" filterUnits="userSpaceOnUse" color-interpolation-filters="sRGB">
<feFlood flood-opacity="0" result="BackgroundImageFix"/>
<feGaussianBlur in="BackgroundImageFix" stdDeviation="20"/>
<feComposite in2="SourceAlpha" operator="in" result="effect1_backgroundBlur_3240_15641"/>
<feBlend mode="normal" in="SourceGraphic" in2="effect1_backgroundBlur_3240_15641" result="shape"/>
</filter>
</defs>
</svg>
